<svg width="1050" height="430" viewBox="0 0 1050 430" fill="none" xmlns="http://www.w3.org/2000/svg">
<rect x="837.001" y="149.043" width="210.619" height="197.267" stroke="#FF0000" stroke-width="4.00137"/>
<path d="M896.135 136.785V128.722H990.208V136.785M999.039 136.785V121.042H885V136.391" stroke="#FF0000" stroke-width="4"/>
<path d="M838 244.042H860.208M1046.87 244.042H1026.86" stroke="#FF0000" stroke-width="2"/>
<rect x="590.001" y="149.043" width="210.619" height="197.267" stroke="#FF0000" stroke-width="4.00137"/>
<path d="M649.135 136.785V128.722H743.208V136.785M752.039 136.785V121.042H638V136.391" stroke="#FF0000" stroke-width="4"/>
<path d="M591 244.042H613.208M799.871 244.042H779.865" stroke="#FF0000" stroke-width="2"/>
<path d="M629.908 149.042H314" stroke="#FF0000" stroke-width="4.00137"/>
<rect x="2.03486" y="54.1424" width="432.548" height="261.289" fill="white" stroke="#FF0000" stroke-width="4.00137"/>
<rect x="0.0341797" y="321.035" width="436.549" height="33.6115" rx="7.6026" fill="#FF0000"/>
<rect x="0.0341797" y="358.246" width="436.549" height="33.6115" rx="7.6026" fill="#FF0000"/>
<rect x="0.0341797" y="395.459" width="436.549" height="33.6115" rx="7.6026" fill="#FF0000"/>
<rect y="0.000152588" width="437" height="45" rx="4.80164" fill="#FF0000"/>
</svg>
