<svg width="589" height="785" viewBox="0 0 589 785" fill="none" xmlns="http://www.w3.org/2000/svg">
<path d="M36 14.1211L551 16.0259" stroke="black" stroke-width="2"/>
<path d="M37 52L552 53.9048" stroke="black" stroke-width="2"/>
<path d="M36 14.1211L551 16.0259" stroke="black" stroke-width="2"/>
<path d="M36 90L551 91.9048" stroke="black" stroke-width="2"/>
<path d="M36 507.879L551 509.784" stroke="black" stroke-width="2"/>
<path d="M35 470L550 471.905" stroke="black" stroke-width="2"/>
<path d="M35 545.879L550 547.784" stroke="black" stroke-width="2"/>
<path d="M35 621.879L550 623.784" stroke="black" stroke-width="2"/>
<path d="M34 584L549 585.905" stroke="black" stroke-width="2"/>
<path d="M34 659.879L549 661.784" stroke="black" stroke-width="2"/>
<path d="M36 735.879L551 737.784" stroke="black" stroke-width="2"/>
<path d="M35 698L550 699.905" stroke="black" stroke-width="2"/>
<path d="M35 773.879L550 775.784" stroke="black" stroke-width="2"/>
<path d="M0.5 33.5H586.5M0.5 148.5H586.5M0.5 107.5H586.5M0.5 184H586.5M0.5 71H586.5" stroke="black"/>
<path d="M1 223H587M1 338H587M1 297H587M1 373.5H587M1 260.5H587" stroke="black"/>
<path d="M0 603H586M0 718H586M0 677H586M0 753.5H586M0 640.5H586" stroke="black"/>
<path d="M1 413H587M1 528H587M1 487H587M1 563.5H587M1 450.5H587" stroke="black"/>
<path d="M38 393.879L553 395.784" stroke="black" stroke-width="2"/>
<path d="M37 356L552 357.905" stroke="black" stroke-width="2"/>
<path d="M37 431.879L552 433.784" stroke="black" stroke-width="2"/>
<path d="M38 279.879L553 281.784" stroke="black" stroke-width="2"/>
<path d="M37 242L552 243.905" stroke="black" stroke-width="2"/>
<path d="M37 317.879L552 319.784" stroke="black" stroke-width="2"/>
<path d="M36 165.879L551 167.784" stroke="black" stroke-width="2"/>
<path d="M35 128L550 129.905" stroke="black" stroke-width="2"/>
<path d="M35 203.879L550 205.784" stroke="black" stroke-width="2"/>
<path d="M563.62 728.72V742H562.7V729.76L559.36 731.86L558.92 731.16L562.84 728.72H563.62ZM571.605 728.5C572.925 728.5 573.932 729.08 574.625 730.24C575.318 731.4 575.665 733.113 575.665 735.38C575.665 737.633 575.318 739.34 574.625 740.5C573.932 741.647 572.925 742.22 571.605 742.22C570.285 742.22 569.272 741.64 568.565 740.48C567.872 739.307 567.525 737.593 567.525 735.34C567.525 733.087 567.872 731.387 568.565 730.24C569.258 729.08 570.272 728.5 571.605 728.5ZM571.605 729.28C570.592 729.28 569.818 729.78 569.285 730.78C568.752 731.78 568.485 733.3 568.485 735.34C568.485 739.393 569.525 741.42 571.605 741.42C573.672 741.42 574.705 739.407 574.705 735.38C574.705 731.313 573.672 729.28 571.605 729.28ZM585.063 729.52H579.603V734.28C580.296 733.84 581.069 733.62 581.923 733.62C583.069 733.62 583.976 733.987 584.643 734.72C585.309 735.44 585.643 736.44 585.643 737.72C585.643 738.587 585.469 739.367 585.123 740.06C584.789 740.74 584.309 741.273 583.683 741.66C583.056 742.033 582.323 742.22 581.483 742.22C580.709 742.22 580.023 742.087 579.423 741.82C578.836 741.553 578.289 741.16 577.783 740.64L578.403 740.08C578.829 740.533 579.283 740.867 579.763 741.08C580.256 741.293 580.836 741.4 581.503 741.4C582.476 741.4 583.249 741.067 583.823 740.4C584.396 739.733 584.683 738.833 584.683 737.7C584.683 736.607 584.416 735.787 583.883 735.24C583.363 734.68 582.656 734.4 581.763 734.4C581.296 734.4 580.889 734.453 580.543 734.56C580.209 734.667 579.843 734.84 579.443 735.08H578.703V728.72H585.223L585.063 729.52Z" fill="black"/>
<path d="M563.62 766.72V780H562.7V767.76L559.36 769.86L558.92 769.16L562.84 766.72H563.62ZM571.605 766.5C572.925 766.5 573.932 767.08 574.625 768.24C575.318 769.4 575.665 771.113 575.665 773.38C575.665 775.633 575.318 777.34 574.625 778.5C573.932 779.647 572.925 780.22 571.605 780.22C570.285 780.22 569.272 779.64 568.565 778.48C567.872 777.307 567.525 775.593 567.525 773.34C567.525 771.087 567.872 769.387 568.565 768.24C569.258 767.08 570.272 766.5 571.605 766.5ZM571.605 767.28C570.592 767.28 569.818 767.78 569.285 768.78C568.752 769.78 568.485 771.3 568.485 773.34C568.485 777.393 569.525 779.42 571.605 779.42C573.672 779.42 574.705 777.407 574.705 773.38C574.705 769.313 573.672 767.28 571.605 767.28ZM582.543 766.5C583.863 766.5 584.869 767.08 585.563 768.24C586.256 769.4 586.603 771.113 586.603 773.38C586.603 775.633 586.256 777.34 585.563 778.5C584.869 779.647 583.863 780.22 582.543 780.22C581.223 780.22 580.209 779.64 579.503 778.48C578.809 777.307 578.463 775.593 578.463 773.34C578.463 771.087 578.809 769.387 579.503 768.24C580.196 767.08 581.209 766.5 582.543 766.5ZM582.543 767.28C581.529 767.28 580.756 767.78 580.223 768.78C579.689 769.78 579.423 771.3 579.423 773.34C579.423 777.393 580.463 779.42 582.543 779.42C584.609 779.42 585.643 777.407 585.643 773.38C585.643 769.313 584.609 767.28 582.543 767.28Z" fill="black"/>
<path d="M562.62 652.72V666H561.7V653.76L558.36 655.86L557.92 655.16L561.84 652.72H562.62ZM570.53 652.72V666H569.61V653.76L566.27 655.86L565.83 655.16L569.75 652.72H570.53ZM581.035 653.52H575.575V658.28C576.268 657.84 577.042 657.62 577.895 657.62C579.042 657.62 579.948 657.987 580.615 658.72C581.282 659.44 581.615 660.44 581.615 661.72C581.615 662.587 581.442 663.367 581.095 664.06C580.762 664.74 580.282 665.273 579.655 665.66C579.028 666.033 578.295 666.22 577.455 666.22C576.682 666.22 575.995 666.087 575.395 665.82C574.808 665.553 574.262 665.16 573.755 664.64L574.375 664.08C574.802 664.533 575.255 664.867 575.735 665.08C576.228 665.293 576.808 665.4 577.475 665.4C578.448 665.4 579.222 665.067 579.795 664.4C580.368 663.733 580.655 662.833 580.655 661.7C580.655 660.607 580.388 659.787 579.855 659.24C579.335 658.68 578.628 658.4 577.735 658.4C577.268 658.4 576.862 658.453 576.515 658.56C576.182 658.667 575.815 658.84 575.415 659.08H574.675V652.72H581.195L581.035 653.52Z" fill="black"/>
<path d="M563.62 690.72V704H562.7V691.76L559.36 693.86L558.92 693.16L562.84 690.72H563.62ZM571.53 690.72V704H570.61V691.76L567.27 693.86L566.83 693.16L570.75 690.72H571.53ZM579.515 690.5C580.835 690.5 581.842 691.08 582.535 692.24C583.228 693.4 583.575 695.113 583.575 697.38C583.575 699.633 583.228 701.34 582.535 702.5C581.842 703.647 580.835 704.22 579.515 704.22C578.195 704.22 577.182 703.64 576.475 702.48C575.782 701.307 575.435 699.593 575.435 697.34C575.435 695.087 575.782 693.387 576.475 692.24C577.168 691.08 578.182 690.5 579.515 690.5ZM579.515 691.28C578.502 691.28 577.728 691.78 577.195 692.78C576.662 693.78 576.395 695.3 576.395 697.34C576.395 701.393 577.435 703.42 579.515 703.42C581.582 703.42 582.615 701.407 582.615 697.38C582.615 693.313 581.582 691.28 579.515 691.28Z" fill="black"/>
<path d="M563.62 271.72V285H562.7V272.76L559.36 274.86L558.92 274.16L562.84 271.72H563.62ZM571.965 276.38C572.978 276.38 573.812 276.733 574.465 277.44C575.118 278.147 575.445 279.18 575.445 280.54C575.445 281.487 575.278 282.313 574.945 283.02C574.625 283.727 574.178 284.273 573.605 284.66C573.032 285.033 572.378 285.22 571.645 285.22C570.218 285.22 569.172 284.66 568.505 283.54C567.852 282.42 567.525 280.94 567.525 279.1C567.525 277.54 567.712 276.187 568.085 275.04C568.472 273.893 569.018 273.02 569.725 272.42C570.432 271.807 571.265 271.5 572.225 271.5C572.705 271.5 573.132 271.567 573.505 271.7C573.878 271.82 574.245 272.007 574.605 272.26L574.185 272.92C573.865 272.707 573.545 272.547 573.225 272.44C572.918 272.333 572.578 272.28 572.205 272.28C571.072 272.28 570.178 272.847 569.525 273.98C568.872 275.113 568.518 276.6 568.465 278.44C569.385 277.067 570.552 276.38 571.965 276.38ZM571.645 284.42C572.565 284.42 573.272 284.067 573.765 283.36C574.258 282.653 574.505 281.72 574.505 280.56C574.505 279.427 574.265 278.58 573.785 278.02C573.305 277.46 572.665 277.18 571.865 277.18C571.158 277.18 570.512 277.387 569.925 277.8C569.352 278.2 568.865 278.76 568.465 279.48C568.505 281.067 568.772 282.287 569.265 283.14C569.772 283.993 570.565 284.42 571.645 284.42ZM584.418 272.52H578.958V277.28C579.651 276.84 580.425 276.62 581.278 276.62C582.425 276.62 583.331 276.987 583.998 277.72C584.665 278.44 584.998 279.44 584.998 280.72C584.998 281.587 584.825 282.367 584.478 283.06C584.145 283.74 583.665 284.273 583.038 284.66C582.411 285.033 581.678 285.22 580.838 285.22C580.065 285.22 579.378 285.087 578.778 284.82C578.191 284.553 577.645 284.16 577.138 283.64L577.758 283.08C578.185 283.533 578.638 283.867 579.118 284.08C579.611 284.293 580.191 284.4 580.858 284.4C581.831 284.4 582.605 284.067 583.178 283.4C583.751 282.733 584.038 281.833 584.038 280.7C584.038 279.607 583.771 278.787 583.238 278.24C582.718 277.68 582.011 277.4 581.118 277.4C580.651 277.4 580.245 277.453 579.898 277.56C579.565 277.667 579.198 277.84 578.798 278.08H578.058V271.72H584.578L584.418 272.52Z" fill="black"/>
<path d="M563.62 309.72V323H562.7V310.76L559.36 312.86L558.92 312.16L562.84 309.72H563.62ZM571.965 314.38C572.978 314.38 573.812 314.733 574.465 315.44C575.118 316.147 575.445 317.18 575.445 318.54C575.445 319.487 575.278 320.313 574.945 321.02C574.625 321.727 574.178 322.273 573.605 322.66C573.032 323.033 572.378 323.22 571.645 323.22C570.218 323.22 569.172 322.66 568.505 321.54C567.852 320.42 567.525 318.94 567.525 317.1C567.525 315.54 567.712 314.187 568.085 313.04C568.472 311.893 569.018 311.02 569.725 310.42C570.432 309.807 571.265 309.5 572.225 309.5C572.705 309.5 573.132 309.567 573.505 309.7C573.878 309.82 574.245 310.007 574.605 310.26L574.185 310.92C573.865 310.707 573.545 310.547 573.225 310.44C572.918 310.333 572.578 310.28 572.205 310.28C571.072 310.28 570.178 310.847 569.525 311.98C568.872 313.113 568.518 314.6 568.465 316.44C569.385 315.067 570.552 314.38 571.965 314.38ZM571.645 322.42C572.565 322.42 573.272 322.067 573.765 321.36C574.258 320.653 574.505 319.72 574.505 318.56C574.505 317.427 574.265 316.58 573.785 316.02C573.305 315.46 572.665 315.18 571.865 315.18C571.158 315.18 570.512 315.387 569.925 315.8C569.352 316.2 568.865 316.76 568.465 317.48C568.505 319.067 568.772 320.287 569.265 321.14C569.772 321.993 570.565 322.42 571.645 322.42ZM581.996 309.5C583.316 309.5 584.322 310.08 585.016 311.24C585.709 312.4 586.056 314.113 586.056 316.38C586.056 318.633 585.709 320.34 585.016 321.5C584.322 322.647 583.316 323.22 581.996 323.22C580.676 323.22 579.662 322.64 578.956 321.48C578.262 320.307 577.916 318.593 577.916 316.34C577.916 314.087 578.262 312.387 578.956 311.24C579.649 310.08 580.662 309.5 581.996 309.5ZM581.996 310.28C580.982 310.28 580.209 310.78 579.676 311.78C579.142 312.78 578.876 314.3 578.876 316.34C578.876 320.393 579.916 322.42 581.996 322.42C584.062 322.42 585.096 320.407 585.096 316.38C585.096 312.313 584.062 310.28 581.996 310.28Z" fill="black"/>
<path d="M562.62 195.72V209H561.7V196.76L558.36 198.86L557.92 198.16L561.84 195.72H562.62ZM573.065 195.72V196.46L567.745 209.14L566.865 208.84L572.085 196.52H565.765V195.72H573.065ZM581.426 196.52H575.966V201.28C576.659 200.84 577.432 200.62 578.286 200.62C579.432 200.62 580.339 200.987 581.006 201.72C581.672 202.44 582.006 203.44 582.006 204.72C582.006 205.587 581.832 206.367 581.486 207.06C581.152 207.74 580.672 208.273 580.046 208.66C579.419 209.033 578.686 209.22 577.846 209.22C577.072 209.22 576.386 209.087 575.786 208.82C575.199 208.553 574.652 208.16 574.146 207.64L574.766 207.08C575.192 207.533 575.646 207.867 576.126 208.08C576.619 208.293 577.199 208.4 577.866 208.4C578.839 208.4 579.612 208.067 580.186 207.4C580.759 206.733 581.046 205.833 581.046 204.7C581.046 203.607 580.779 202.787 580.246 202.24C579.726 201.68 579.019 201.4 578.126 201.4C577.659 201.4 577.252 201.453 576.906 201.56C576.572 201.667 576.206 201.84 575.806 202.08H575.066V195.72H581.586L581.426 196.52Z" fill="black"/>
<path d="M563.62 233.72V247H562.7V234.76L559.36 236.86L558.92 236.16L562.84 233.72H563.62ZM574.065 233.72V234.46L568.745 247.14L567.865 246.84L573.085 234.52H566.765V233.72H574.065ZM580.003 233.5C581.323 233.5 582.33 234.08 583.023 235.24C583.717 236.4 584.063 238.113 584.063 240.38C584.063 242.633 583.717 244.34 583.023 245.5C582.33 246.647 581.323 247.22 580.003 247.22C578.683 247.22 577.67 246.64 576.963 245.48C576.27 244.307 575.923 242.593 575.923 240.34C575.923 238.087 576.27 236.387 576.963 235.24C577.657 234.08 578.67 233.5 580.003 233.5ZM580.003 234.28C578.99 234.28 578.217 234.78 577.683 235.78C577.15 236.78 576.883 238.3 576.883 240.34C576.883 244.393 577.923 246.42 580.003 246.42C582.07 246.42 583.103 244.407 583.103 240.38C583.103 236.313 582.07 234.28 580.003 234.28Z" fill="black"/>
<path d="M563.62 119.72V133H562.7V120.76L559.36 122.86L558.92 122.16L562.84 119.72H563.62ZM572.665 126C573.718 126.427 574.478 126.913 574.945 127.46C575.425 127.993 575.665 128.7 575.665 129.58C575.665 130.313 575.485 130.953 575.125 131.5C574.765 132.047 574.265 132.473 573.625 132.78C572.985 133.073 572.252 133.22 571.425 133.22C570.585 133.22 569.845 133.067 569.205 132.76C568.578 132.453 568.092 132.027 567.745 131.48C567.412 130.933 567.245 130.307 567.245 129.6C567.245 128.707 567.498 127.947 568.005 127.32C568.512 126.693 569.245 126.2 570.205 125.84C569.378 125.48 568.778 125.067 568.405 124.6C568.032 124.133 567.845 123.527 567.845 122.78C567.845 122.1 568.012 121.513 568.345 121.02C568.678 120.527 569.118 120.153 569.665 119.9C570.225 119.633 570.825 119.5 571.465 119.5C572.105 119.5 572.698 119.627 573.245 119.88C573.805 120.133 574.252 120.507 574.585 121C574.932 121.493 575.105 122.087 575.105 122.78C575.105 123.487 574.912 124.093 574.525 124.6C574.138 125.093 573.518 125.56 572.665 126ZM568.765 122.8C568.765 123.44 568.938 123.953 569.285 124.34C569.645 124.727 570.285 125.093 571.205 125.44L571.945 125.72C572.732 125.307 573.298 124.88 573.645 124.44C573.992 123.987 574.165 123.447 574.165 122.82C574.165 122.007 573.912 121.38 573.405 120.94C572.912 120.487 572.265 120.26 571.465 120.26C570.678 120.26 570.032 120.487 569.525 120.94C569.018 121.38 568.765 122 568.765 122.8ZM571.445 132.4C572.418 132.4 573.205 132.153 573.805 131.66C574.405 131.167 574.705 130.473 574.705 129.58C574.705 129.02 574.605 128.56 574.405 128.2C574.205 127.827 573.892 127.507 573.465 127.24C573.052 126.973 572.472 126.7 571.725 126.42L571.005 126.14C570.018 126.513 569.305 126.973 568.865 127.52C568.425 128.067 568.205 128.76 568.205 129.6C568.205 130.493 568.498 131.187 569.085 131.68C569.672 132.16 570.458 132.4 571.445 132.4ZM584.789 120.52H579.329V125.28C580.022 124.84 580.796 124.62 581.649 124.62C582.796 124.62 583.702 124.987 584.369 125.72C585.036 126.44 585.369 127.44 585.369 128.72C585.369 129.587 585.196 130.367 584.849 131.06C584.516 131.74 584.036 132.273 583.409 132.66C582.782 133.033 582.049 133.22 581.209 133.22C580.436 133.22 579.749 133.087 579.149 132.82C578.562 132.553 578.016 132.16 577.509 131.64L578.129 131.08C578.556 131.533 579.009 131.867 579.489 132.08C579.982 132.293 580.562 132.4 581.229 132.4C582.202 132.4 582.976 132.067 583.549 131.4C584.122 130.733 584.409 129.833 584.409 128.7C584.409 127.607 584.142 126.787 583.609 126.24C583.089 125.68 582.382 125.4 581.489 125.4C581.022 125.4 580.616 125.453 580.269 125.56C579.936 125.667 579.569 125.84 579.169 126.08H578.429V119.72H584.949L584.789 120.52Z" fill="black"/>
<path d="M563.62 157.72V171H562.7V158.76L559.36 160.86L558.92 160.16L562.84 157.72H563.62ZM572.665 164C573.718 164.427 574.478 164.913 574.945 165.46C575.425 165.993 575.665 166.7 575.665 167.58C575.665 168.313 575.485 168.953 575.125 169.5C574.765 170.047 574.265 170.473 573.625 170.78C572.985 171.073 572.252 171.22 571.425 171.22C570.585 171.22 569.845 171.067 569.205 170.76C568.578 170.453 568.092 170.027 567.745 169.48C567.412 168.933 567.245 168.307 567.245 167.6C567.245 166.707 567.498 165.947 568.005 165.32C568.512 164.693 569.245 164.2 570.205 163.84C569.378 163.48 568.778 163.067 568.405 162.6C568.032 162.133 567.845 161.527 567.845 160.78C567.845 160.1 568.012 159.513 568.345 159.02C568.678 158.527 569.118 158.153 569.665 157.9C570.225 157.633 570.825 157.5 571.465 157.5C572.105 157.5 572.698 157.627 573.245 157.88C573.805 158.133 574.252 158.507 574.585 159C574.932 159.493 575.105 160.087 575.105 160.78C575.105 161.487 574.912 162.093 574.525 162.6C574.138 163.093 573.518 163.56 572.665 164ZM568.765 160.8C568.765 161.44 568.938 161.953 569.285 162.34C569.645 162.727 570.285 163.093 571.205 163.44L571.945 163.72C572.732 163.307 573.298 162.88 573.645 162.44C573.992 161.987 574.165 161.447 574.165 160.82C574.165 160.007 573.912 159.38 573.405 158.94C572.912 158.487 572.265 158.26 571.465 158.26C570.678 158.26 570.032 158.487 569.525 158.94C569.018 159.38 568.765 160 568.765 160.8ZM571.445 170.4C572.418 170.4 573.205 170.153 573.805 169.66C574.405 169.167 574.705 168.473 574.705 167.58C574.705 167.02 574.605 166.56 574.405 166.2C574.205 165.827 573.892 165.507 573.465 165.24C573.052 164.973 572.472 164.7 571.725 164.42L571.005 164.14C570.018 164.513 569.305 164.973 568.865 165.52C568.425 166.067 568.205 166.76 568.205 167.6C568.205 168.493 568.498 169.187 569.085 169.68C569.672 170.16 570.458 170.4 571.445 170.4ZM582.269 157.5C583.589 157.5 584.596 158.08 585.289 159.24C585.982 160.4 586.329 162.113 586.329 164.38C586.329 166.633 585.982 168.34 585.289 169.5C584.596 170.647 583.589 171.22 582.269 171.22C580.949 171.22 579.936 170.64 579.229 169.48C578.536 168.307 578.189 166.593 578.189 164.34C578.189 162.087 578.536 160.387 579.229 159.24C579.922 158.08 580.936 157.5 582.269 157.5ZM582.269 158.28C581.256 158.28 580.482 158.78 579.949 159.78C579.416 160.78 579.149 162.3 579.149 164.34C579.149 168.393 580.189 170.42 582.269 170.42C584.336 170.42 585.369 168.407 585.369 164.38C585.369 160.313 584.336 158.28 582.269 158.28Z" fill="black"/>
<path d="M562.62 43.72V57H561.7V44.76L558.36 46.86L557.92 46.16L561.84 43.72H562.62ZM570.205 43.5C571.525 43.5 572.512 43.9733 573.165 44.92C573.818 45.8533 574.145 47.1867 574.145 48.92C574.145 50.6 573.898 51.98 573.405 53.06C572.912 54.14 572.192 55.0133 571.245 55.68C570.312 56.3333 569.098 56.8933 567.605 57.36L567.365 56.64C569.232 56.0533 570.645 55.26 571.605 54.26C572.565 53.2467 573.098 51.84 573.205 50.04C572.792 50.6667 572.298 51.1533 571.725 51.5C571.152 51.8333 570.518 52 569.825 52C569.145 52 568.532 51.8333 567.985 51.5C567.438 51.1533 567.012 50.6667 566.705 50.04C566.398 49.4133 566.245 48.68 566.245 47.84C566.245 46.96 566.412 46.1933 566.745 45.54C567.092 44.8867 567.565 44.3867 568.165 44.04C568.765 43.68 569.445 43.5 570.205 43.5ZM569.965 51.2C570.632 51.2 571.225 51.0267 571.745 50.68C572.265 50.32 572.752 49.7933 573.205 49.1C573.205 47.4733 572.965 46.2667 572.485 45.48C572.018 44.68 571.265 44.28 570.225 44.28C569.292 44.28 568.552 44.5933 568.005 45.22C567.472 45.8467 567.205 46.7267 567.205 47.86C567.205 48.9133 567.452 49.7333 567.945 50.32C568.452 50.9067 569.125 51.2 569.965 51.2ZM583.418 44.52H577.958V49.28C578.651 48.84 579.425 48.62 580.278 48.62C581.425 48.62 582.331 48.9867 582.998 49.72C583.665 50.44 583.998 51.44 583.998 52.72C583.998 53.5867 583.825 54.3667 583.478 55.06C583.145 55.74 582.665 56.2733 582.038 56.66C581.411 57.0333 580.678 57.22 579.838 57.22C579.065 57.22 578.378 57.0867 577.778 56.82C577.191 56.5533 576.645 56.16 576.138 55.64L576.758 55.08C577.185 55.5333 577.638 55.8667 578.118 56.08C578.611 56.2933 579.191 56.4 579.858 56.4C580.831 56.4 581.605 56.0667 582.178 55.4C582.751 54.7333 583.038 53.8333 583.038 52.7C583.038 51.6067 582.771 50.7867 582.238 50.24C581.718 49.68 581.011 49.4 580.118 49.4C579.651 49.4 579.245 49.4533 578.898 49.56C578.565 49.6667 578.198 49.84 577.798 50.08H577.058V43.72H583.578L583.418 44.52Z" fill="black"/>
<path d="M561.48 6.5C562.56 6.5 563.42 6.82667 564.06 7.48C564.7 8.12 565.02 8.94 565.02 9.94C565.02 10.8333 564.84 11.6667 564.48 12.44C564.12 13.2 563.553 14.04 562.78 14.96C562.02 15.8667 560.753 17.2667 558.98 19.16H565.38L565.24 20H557.88V19.2C559.733 17.2133 561.06 15.74 561.86 14.78C562.673 13.8067 563.24 12.9733 563.56 12.28C563.893 11.5733 564.06 10.8133 564.06 10C564.06 9.17333 563.82 8.52 563.34 8.04C562.873 7.54667 562.24 7.3 561.44 7.3C560.8 7.3 560.233 7.43333 559.74 7.7C559.247 7.95333 558.793 8.33333 558.38 8.84L557.72 8.36C558.24 7.72 558.8 7.25333 559.4 6.96C560 6.65333 560.693 6.5 561.48 6.5ZM571.933 6.5C573.253 6.5 574.26 7.08 574.953 8.24C575.646 9.4 575.993 11.1133 575.993 13.38C575.993 15.6333 575.646 17.34 574.953 18.5C574.26 19.6467 573.253 20.22 571.933 20.22C570.613 20.22 569.6 19.64 568.893 18.48C568.2 17.3067 567.853 15.5933 567.853 13.34C567.853 11.0867 568.2 9.38667 568.893 8.24C569.586 7.08 570.6 6.5 571.933 6.5ZM571.933 7.28C570.92 7.28 570.146 7.78 569.613 8.78C569.08 9.78 568.813 11.3 568.813 13.34C568.813 17.3933 569.853 19.42 571.933 19.42C574 19.42 575.033 17.4067 575.033 13.38C575.033 9.31333 574 7.28 571.933 7.28ZM582.871 6.5C584.191 6.5 585.197 7.08 585.891 8.24C586.584 9.4 586.931 11.1133 586.931 13.38C586.931 15.6333 586.584 17.34 585.891 18.5C585.197 19.6467 584.191 20.22 582.871 20.22C581.551 20.22 580.537 19.64 579.831 18.48C579.137 17.3067 578.791 15.5933 578.791 13.34C578.791 11.0867 579.137 9.38667 579.831 8.24C580.524 7.08 581.537 6.5 582.871 6.5ZM582.871 7.28C581.857 7.28 581.084 7.78 580.551 8.78C580.017 9.78 579.751 11.3 579.751 13.34C579.751 17.3933 580.791 19.42 582.871 19.42C584.937 19.42 585.971 17.4067 585.971 13.38C585.971 9.31333 584.937 7.28 582.871 7.28Z" fill="black"/>
<path d="M563.62 81.72V95H562.7V82.76L559.36 84.86L558.92 84.16L562.84 81.72H563.62ZM571.205 81.5C572.525 81.5 573.512 81.9733 574.165 82.92C574.818 83.8533 575.145 85.1867 575.145 86.92C575.145 88.6 574.898 89.98 574.405 91.06C573.912 92.14 573.192 93.0133 572.245 93.68C571.312 94.3333 570.098 94.8933 568.605 95.36L568.365 94.64C570.232 94.0533 571.645 93.26 572.605 92.26C573.565 91.2467 574.098 89.84 574.205 88.04C573.792 88.6667 573.298 89.1533 572.725 89.5C572.152 89.8333 571.518 90 570.825 90C570.145 90 569.532 89.8333 568.985 89.5C568.438 89.1533 568.012 88.6667 567.705 88.04C567.398 87.4133 567.245 86.68 567.245 85.84C567.245 84.96 567.412 84.1933 567.745 83.54C568.092 82.8867 568.565 82.3867 569.165 82.04C569.765 81.68 570.445 81.5 571.205 81.5ZM570.965 89.2C571.632 89.2 572.225 89.0267 572.745 88.68C573.265 88.32 573.752 87.7933 574.205 87.1C574.205 85.4733 573.965 84.2667 573.485 83.48C573.018 82.68 572.265 82.28 571.225 82.28C570.292 82.28 569.552 82.5933 569.005 83.22C568.472 83.8467 568.205 84.7267 568.205 85.86C568.205 86.9133 568.452 87.7333 568.945 88.32C569.452 88.9067 570.125 89.2 570.965 89.2ZM581.898 81.5C583.218 81.5 584.225 82.08 584.918 83.24C585.611 84.4 585.958 86.1133 585.958 88.38C585.958 90.6333 585.611 92.34 584.918 93.5C584.225 94.6467 583.218 95.22 581.898 95.22C580.578 95.22 579.565 94.64 578.858 93.48C578.165 92.3067 577.818 90.5933 577.818 88.34C577.818 86.0867 578.165 84.3867 578.858 83.24C579.551 82.08 580.565 81.5 581.898 81.5ZM581.898 82.28C580.885 82.28 580.111 82.78 579.578 83.78C579.045 84.78 578.778 86.3 578.778 88.34C578.778 92.3933 579.818 94.42 581.898 94.42C583.965 94.42 584.998 92.4067 584.998 88.38C584.998 84.3133 583.965 82.28 581.898 82.28Z" fill="black"/>
<path d="M564.62 423.72V437H563.7V424.76L560.36 426.86L559.92 426.16L563.84 423.72H564.62ZM576.645 432.64V433.44H574.825V437H573.925V433.44H568.065V432.72L572.145 423.5L572.925 423.82L569.045 432.64H573.925L574.025 428.64H574.825V432.64H576.645ZM585.184 424.52H579.724V429.28C580.417 428.84 581.19 428.62 582.044 428.62C583.19 428.62 584.097 428.987 584.764 429.72C585.43 430.44 585.764 431.44 585.764 432.72C585.764 433.587 585.59 434.367 585.244 435.06C584.91 435.74 584.43 436.273 583.804 436.66C583.177 437.033 582.444 437.22 581.604 437.22C580.83 437.22 580.144 437.087 579.544 436.82C578.957 436.553 578.41 436.16 577.904 435.64L578.524 435.08C578.95 435.533 579.404 435.867 579.884 436.08C580.377 436.293 580.957 436.4 581.624 436.4C582.597 436.4 583.37 436.067 583.944 435.4C584.517 434.733 584.804 433.833 584.804 432.7C584.804 431.607 584.537 430.787 584.004 430.24C583.484 429.68 582.777 429.4 581.884 429.4C581.417 429.4 581.01 429.453 580.664 429.56C580.33 429.667 579.964 429.84 579.564 430.08H578.824V423.72H585.344L585.184 424.52Z" fill="black"/>
<path d="M564.62 461.72V475H563.7V462.76L560.36 464.86L559.92 464.16L563.84 461.72H564.62ZM576.645 470.64V471.44H574.825V475H573.925V471.44H568.065V470.72L572.145 461.5L572.925 461.82L569.045 470.64H573.925L574.025 466.64H574.825V470.64H576.645ZM582.859 461.5C584.179 461.5 585.186 462.08 585.879 463.24C586.572 464.4 586.919 466.113 586.919 468.38C586.919 470.633 586.572 472.34 585.879 473.5C585.186 474.647 584.179 475.22 582.859 475.22C581.539 475.22 580.526 474.64 579.819 473.48C579.126 472.307 578.779 470.593 578.779 468.34C578.779 466.087 579.126 464.387 579.819 463.24C580.512 462.08 581.526 461.5 582.859 461.5ZM582.859 462.28C581.846 462.28 581.072 462.78 580.539 463.78C580.006 464.78 579.739 466.3 579.739 468.34C579.739 472.393 580.779 474.42 582.859 474.42C584.926 474.42 585.959 472.407 585.959 468.38C585.959 464.313 584.926 462.28 582.859 462.28Z" fill="black"/>
<path d="M563.62 347.72V361H562.7V348.76L559.36 350.86L558.92 350.16L562.84 347.72H563.62ZM574.125 348.52H568.665V353.28C569.358 352.84 570.132 352.62 570.985 352.62C572.132 352.62 573.038 352.987 573.705 353.72C574.372 354.44 574.705 355.44 574.705 356.72C574.705 357.587 574.532 358.367 574.185 359.06C573.852 359.74 573.372 360.273 572.745 360.66C572.118 361.033 571.385 361.22 570.545 361.22C569.772 361.22 569.085 361.087 568.485 360.82C567.898 360.553 567.352 360.16 566.845 359.64L567.465 359.08C567.892 359.533 568.345 359.867 568.825 360.08C569.318 360.293 569.898 360.4 570.565 360.4C571.538 360.4 572.312 360.067 572.885 359.4C573.458 358.733 573.745 357.833 573.745 356.7C573.745 355.607 573.478 354.787 572.945 354.24C572.425 353.68 571.718 353.4 570.825 353.4C570.358 353.4 569.952 353.453 569.605 353.56C569.272 353.667 568.905 353.84 568.505 354.08H567.765V347.72H574.285L574.125 348.52ZM583.676 348.52H578.216V353.28C578.909 352.84 579.682 352.62 580.536 352.62C581.682 352.62 582.589 352.987 583.256 353.72C583.922 354.44 584.256 355.44 584.256 356.72C584.256 357.587 584.082 358.367 583.736 359.06C583.402 359.74 582.922 360.273 582.296 360.66C581.669 361.033 580.936 361.22 580.096 361.22C579.322 361.22 578.636 361.087 578.036 360.82C577.449 360.553 576.902 360.16 576.396 359.64L577.016 359.08C577.442 359.533 577.896 359.867 578.376 360.08C578.869 360.293 579.449 360.4 580.116 360.4C581.089 360.4 581.862 360.067 582.436 359.4C583.009 358.733 583.296 357.833 583.296 356.7C583.296 355.607 583.029 354.787 582.496 354.24C581.976 353.68 581.269 353.4 580.376 353.4C579.909 353.4 579.502 353.453 579.156 353.56C578.822 353.667 578.456 353.84 578.056 354.08H577.316V347.72H583.836L583.676 348.52Z" fill="black"/>
<path d="M564.62 385.72V399H563.7V386.76L560.36 388.86L559.92 388.16L563.84 385.72H564.62ZM575.125 386.52H569.665V391.28C570.358 390.84 571.132 390.62 571.985 390.62C573.132 390.62 574.038 390.987 574.705 391.72C575.372 392.44 575.705 393.44 575.705 394.72C575.705 395.587 575.532 396.367 575.185 397.06C574.852 397.74 574.372 398.273 573.745 398.66C573.118 399.033 572.385 399.22 571.545 399.22C570.772 399.22 570.085 399.087 569.485 398.82C568.898 398.553 568.352 398.16 567.845 397.64L568.465 397.08C568.892 397.533 569.345 397.867 569.825 398.08C570.318 398.293 570.898 398.4 571.565 398.4C572.538 398.4 573.312 398.067 573.885 397.4C574.458 396.733 574.745 395.833 574.745 394.7C574.745 393.607 574.478 392.787 573.945 392.24C573.425 391.68 572.718 391.4 571.825 391.4C571.358 391.4 570.952 391.453 570.605 391.56C570.272 391.667 569.905 391.84 569.505 392.08H568.765V385.72H575.285L575.125 386.52ZM582.253 385.5C583.573 385.5 584.58 386.08 585.273 387.24C585.967 388.4 586.313 390.113 586.313 392.38C586.313 394.633 585.967 396.34 585.273 397.5C584.58 398.647 583.573 399.22 582.253 399.22C580.933 399.22 579.92 398.64 579.213 397.48C578.52 396.307 578.173 394.593 578.173 392.34C578.173 390.087 578.52 388.387 579.213 387.24C579.907 386.08 580.92 385.5 582.253 385.5ZM582.253 386.28C581.24 386.28 580.467 386.78 579.933 387.78C579.4 388.78 579.133 390.3 579.133 392.34C579.133 396.393 580.173 398.42 582.253 398.42C584.32 398.42 585.353 396.407 585.353 392.38C585.353 388.313 584.32 386.28 582.253 386.28Z" fill="black"/>
<path d="M563.62 575.72V589H562.7V576.76L559.36 578.86L558.92 578.16L562.84 575.72H563.62ZM570.605 575.5C571.685 575.5 572.545 575.827 573.185 576.48C573.825 577.12 574.145 577.94 574.145 578.94C574.145 579.833 573.965 580.667 573.605 581.44C573.245 582.2 572.678 583.04 571.905 583.96C571.145 584.867 569.878 586.267 568.105 588.16H574.505L574.365 589H567.005V588.2C568.858 586.213 570.185 584.74 570.985 583.78C571.798 582.807 572.365 581.973 572.685 581.28C573.018 580.573 573.185 579.813 573.185 579C573.185 578.173 572.945 577.52 572.465 577.04C571.998 576.547 571.365 576.3 570.565 576.3C569.925 576.3 569.358 576.433 568.865 576.7C568.372 576.953 567.918 577.333 567.505 577.84L566.845 577.36C567.365 576.72 567.925 576.253 568.525 575.96C569.125 575.653 569.818 575.5 570.605 575.5ZM583.578 576.52H578.118V581.28C578.811 580.84 579.585 580.62 580.438 580.62C581.585 580.62 582.491 580.987 583.158 581.72C583.825 582.44 584.158 583.44 584.158 584.72C584.158 585.587 583.985 586.367 583.638 587.06C583.305 587.74 582.825 588.273 582.198 588.66C581.571 589.033 580.838 589.22 579.998 589.22C579.225 589.22 578.538 589.087 577.938 588.82C577.351 588.553 576.805 588.16 576.298 587.64L576.918 587.08C577.345 587.533 577.798 587.867 578.278 588.08C578.771 588.293 579.351 588.4 580.018 588.4C580.991 588.4 581.765 588.067 582.338 587.4C582.911 586.733 583.198 585.833 583.198 584.7C583.198 583.607 582.931 582.787 582.398 582.24C581.878 581.68 581.171 581.4 580.278 581.4C579.811 581.4 579.405 581.453 579.058 581.56C578.725 581.667 578.358 581.84 577.958 582.08H577.218V575.72H583.738L583.578 576.52Z" fill="black"/>
<path d="M563.62 613.72V627H562.7V614.76L559.36 616.86L558.92 616.16L562.84 613.72H563.62ZM570.605 613.5C571.685 613.5 572.545 613.827 573.185 614.48C573.825 615.12 574.145 615.94 574.145 616.94C574.145 617.833 573.965 618.667 573.605 619.44C573.245 620.2 572.678 621.04 571.905 621.96C571.145 622.867 569.878 624.267 568.105 626.16H574.505L574.365 627H567.005V626.2C568.858 624.213 570.185 622.74 570.985 621.78C571.798 620.807 572.365 619.973 572.685 619.28C573.018 618.573 573.185 617.813 573.185 617C573.185 616.173 572.945 615.52 572.465 615.04C571.998 614.547 571.365 614.3 570.565 614.3C569.925 614.3 569.358 614.433 568.865 614.7C568.372 614.953 567.918 615.333 567.505 615.84L566.845 615.36C567.365 614.72 567.925 614.253 568.525 613.96C569.125 613.653 569.818 613.5 570.605 613.5ZM581.058 613.5C582.378 613.5 583.385 614.08 584.078 615.24C584.771 616.4 585.118 618.113 585.118 620.38C585.118 622.633 584.771 624.34 584.078 625.5C583.385 626.647 582.378 627.22 581.058 627.22C579.738 627.22 578.725 626.64 578.018 625.48C577.325 624.307 576.978 622.593 576.978 620.34C576.978 618.087 577.325 616.387 578.018 615.24C578.711 614.08 579.725 613.5 581.058 613.5ZM581.058 614.28C580.045 614.28 579.271 614.78 578.738 615.78C578.205 616.78 577.938 618.3 577.938 620.34C577.938 624.393 578.978 626.42 581.058 626.42C583.125 626.42 584.158 624.407 584.158 620.38C584.158 616.313 583.125 614.28 581.058 614.28Z" fill="black"/>
<path d="M562.62 499.72V513H561.7V500.76L558.36 502.86L557.92 502.16L561.84 499.72H562.62ZM569.505 499.5C570.598 499.5 571.465 499.813 572.105 500.44C572.758 501.053 573.085 501.84 573.085 502.8C573.085 503.68 572.838 504.393 572.345 504.94C571.852 505.473 571.218 505.8 570.445 505.92C571.312 505.947 572.025 506.26 572.585 506.86C573.158 507.447 573.445 508.253 573.445 509.28C573.445 510.04 573.272 510.72 572.925 511.32C572.592 511.92 572.112 512.387 571.485 512.72C570.858 513.053 570.132 513.22 569.305 513.22C567.825 513.22 566.578 512.653 565.565 511.52L566.165 511C566.632 511.507 567.112 511.867 567.605 512.08C568.098 512.293 568.658 512.4 569.285 512.4C570.285 512.4 571.065 512.12 571.625 511.56C572.198 510.987 572.485 510.233 572.485 509.3C572.485 508.3 572.212 507.56 571.665 507.08C571.118 506.6 570.358 506.36 569.385 506.36H568.545L568.665 505.6H569.305C570.092 505.6 570.758 505.367 571.305 504.9C571.865 504.42 572.145 503.733 572.145 502.84C572.145 502.053 571.898 501.433 571.405 500.98C570.925 500.527 570.278 500.3 569.465 500.3C568.892 500.3 568.365 500.4 567.885 500.6C567.405 500.8 566.925 501.12 566.445 501.56L565.945 500.98C566.452 500.487 566.992 500.12 567.565 499.88C568.138 499.627 568.785 499.5 569.505 499.5ZM582.773 500.52H577.313V505.28C578.007 504.84 578.78 504.62 579.633 504.62C580.78 504.62 581.687 504.987 582.353 505.72C583.02 506.44 583.353 507.44 583.353 508.72C583.353 509.587 583.18 510.367 582.833 511.06C582.5 511.74 582.02 512.273 581.393 512.66C580.767 513.033 580.033 513.22 579.193 513.22C578.42 513.22 577.733 513.087 577.133 512.82C576.547 512.553 576 512.16 575.493 511.64L576.113 511.08C576.54 511.533 576.993 511.867 577.473 512.08C577.967 512.293 578.547 512.4 579.213 512.4C580.187 512.4 580.96 512.067 581.533 511.4C582.107 510.733 582.393 509.833 582.393 508.7C582.393 507.607 582.127 506.787 581.593 506.24C581.073 505.68 580.367 505.4 579.473 505.4C579.007 505.4 578.6 505.453 578.253 505.56C577.92 505.667 577.553 505.84 577.153 506.08H576.413V499.72H582.933L582.773 500.52Z" fill="black"/>
<path d="M563.62 537.72V551H562.7V538.76L559.36 540.86L558.92 540.16L562.84 537.72H563.62ZM570.505 537.5C571.598 537.5 572.465 537.813 573.105 538.44C573.758 539.053 574.085 539.84 574.085 540.8C574.085 541.68 573.838 542.393 573.345 542.94C572.852 543.473 572.218 543.8 571.445 543.92C572.312 543.947 573.025 544.26 573.585 544.86C574.158 545.447 574.445 546.253 574.445 547.28C574.445 548.04 574.272 548.72 573.925 549.32C573.592 549.92 573.112 550.387 572.485 550.72C571.858 551.053 571.132 551.22 570.305 551.22C568.825 551.22 567.578 550.653 566.565 549.52L567.165 549C567.632 549.507 568.112 549.867 568.605 550.08C569.098 550.293 569.658 550.4 570.285 550.4C571.285 550.4 572.065 550.12 572.625 549.56C573.198 548.987 573.485 548.233 573.485 547.3C573.485 546.3 573.212 545.56 572.665 545.08C572.118 544.6 571.358 544.36 570.385 544.36H569.545L569.665 543.6H570.305C571.092 543.6 571.758 543.367 572.305 542.9C572.865 542.42 573.145 541.733 573.145 540.84C573.145 540.053 572.898 539.433 572.405 538.98C571.925 538.527 571.278 538.3 570.465 538.3C569.892 538.3 569.365 538.4 568.885 538.6C568.405 538.8 567.925 539.12 567.445 539.56L566.945 538.98C567.452 538.487 567.992 538.12 568.565 537.88C569.138 537.627 569.785 537.5 570.505 537.5ZM581.253 537.5C582.573 537.5 583.58 538.08 584.273 539.24C584.967 540.4 585.313 542.113 585.313 544.38C585.313 546.633 584.967 548.34 584.273 549.5C583.58 550.647 582.573 551.22 581.253 551.22C579.933 551.22 578.92 550.64 578.213 549.48C577.52 548.307 577.173 546.593 577.173 544.34C577.173 542.087 577.52 540.387 578.213 539.24C578.907 538.08 579.92 537.5 581.253 537.5ZM581.253 538.28C580.24 538.28 579.467 538.78 578.933 539.78C578.4 540.78 578.133 542.3 578.133 544.34C578.133 548.393 579.173 550.42 581.253 550.42C583.32 550.42 584.353 548.407 584.353 544.38C584.353 540.313 583.32 538.28 581.253 538.28Z" fill="black"/>
<path d="M7.62 727.72V741H6.7V728.76L3.36 730.86L2.92 730.16L6.84 727.72H7.62ZM15.605 727.5C16.925 727.5 17.9317 728.08 18.625 729.24C19.3183 730.4 19.665 732.113 19.665 734.38C19.665 736.633 19.3183 738.34 18.625 739.5C17.9317 740.647 16.925 741.22 15.605 741.22C14.285 741.22 13.2717 740.64 12.565 739.48C11.8717 738.307 11.525 736.593 11.525 734.34C11.525 732.087 11.8717 730.387 12.565 729.24C13.2583 728.08 14.2717 727.5 15.605 727.5ZM15.605 728.28C14.5917 728.28 13.8183 728.78 13.285 729.78C12.7517 730.78 12.485 732.3 12.485 734.34C12.485 738.393 13.525 740.42 15.605 740.42C17.6717 740.42 18.705 738.407 18.705 734.38C18.705 730.313 17.6717 728.28 15.605 728.28ZM29.0625 728.52H23.6025V733.28C24.2958 732.84 25.0692 732.62 25.9225 732.62C27.0692 732.62 27.9758 732.987 28.6425 733.72C29.3092 734.44 29.6425 735.44 29.6425 736.72C29.6425 737.587 29.4692 738.367 29.1225 739.06C28.7892 739.74 28.3092 740.273 27.6825 740.66C27.0558 741.033 26.3225 741.22 25.4825 741.22C24.7092 741.22 24.0225 741.087 23.4225 740.82C22.8358 740.553 22.2892 740.16 21.7825 739.64L22.4025 739.08C22.8292 739.533 23.2825 739.867 23.7625 740.08C24.2558 740.293 24.8358 740.4 25.5025 740.4C26.4758 740.4 27.2492 740.067 27.8225 739.4C28.3958 738.733 28.6825 737.833 28.6825 736.7C28.6825 735.607 28.4158 734.787 27.8825 734.24C27.3625 733.68 26.6558 733.4 25.7625 733.4C25.2958 733.4 24.8892 733.453 24.5425 733.56C24.2092 733.667 23.8425 733.84 23.4425 734.08H22.7025V727.72H29.2225L29.0625 728.52Z" fill="black"/>
<path d="M7.62 765.72V779H6.7V766.76L3.36 768.86L2.92 768.16L6.84 765.72H7.62ZM15.605 765.5C16.925 765.5 17.9317 766.08 18.625 767.24C19.3183 768.4 19.665 770.113 19.665 772.38C19.665 774.633 19.3183 776.34 18.625 777.5C17.9317 778.647 16.925 779.22 15.605 779.22C14.285 779.22 13.2717 778.64 12.565 777.48C11.8717 776.307 11.525 774.593 11.525 772.34C11.525 770.087 11.8717 768.387 12.565 767.24C13.2583 766.08 14.2717 765.5 15.605 765.5ZM15.605 766.28C14.5917 766.28 13.8183 766.78 13.285 767.78C12.7517 768.78 12.485 770.3 12.485 772.34C12.485 776.393 13.525 778.42 15.605 778.42C17.6717 778.42 18.705 776.407 18.705 772.38C18.705 768.313 17.6717 766.28 15.605 766.28ZM26.5425 765.5C27.8625 765.5 28.8692 766.08 29.5625 767.24C30.2558 768.4 30.6025 770.113 30.6025 772.38C30.6025 774.633 30.2558 776.34 29.5625 777.5C28.8692 778.647 27.8625 779.22 26.5425 779.22C25.2225 779.22 24.2092 778.64 23.5025 777.48C22.8092 776.307 22.4625 774.593 22.4625 772.34C22.4625 770.087 22.8092 768.387 23.5025 767.24C24.1958 766.08 25.2092 765.5 26.5425 765.5ZM26.5425 766.28C25.5292 766.28 24.7558 766.78 24.2225 767.78C23.6892 768.78 23.4225 770.3 23.4225 772.34C23.4225 776.393 24.4625 778.42 26.5425 778.42C28.6092 778.42 29.6425 776.407 29.6425 772.38C29.6425 768.313 28.6092 766.28 26.5425 766.28Z" fill="black"/>
<path d="M6.62 651.72V665H5.7V652.76L2.36 654.86L1.92 654.16L5.84 651.72H6.62ZM14.5302 651.72V665H13.6102V652.76L10.2702 654.86L9.83016 654.16L13.7502 651.72H14.5302ZM25.0352 652.52H19.5752V657.28C20.2685 656.84 21.0418 656.62 21.8952 656.62C23.0418 656.62 23.9485 656.987 24.6152 657.72C25.2818 658.44 25.6152 659.44 25.6152 660.72C25.6152 661.587 25.4418 662.367 25.0952 663.06C24.7618 663.74 24.2818 664.273 23.6552 664.66C23.0285 665.033 22.2952 665.22 21.4552 665.22C20.6818 665.22 19.9952 665.087 19.3952 664.82C18.8085 664.553 18.2618 664.16 17.7552 663.64L18.3752 663.08C18.8018 663.533 19.2552 663.867 19.7352 664.08C20.2285 664.293 20.8085 664.4 21.4752 664.4C22.4485 664.4 23.2218 664.067 23.7952 663.4C24.3685 662.733 24.6552 661.833 24.6552 660.7C24.6552 659.607 24.3885 658.787 23.8552 658.24C23.3352 657.68 22.6285 657.4 21.7352 657.4C21.2685 657.4 20.8618 657.453 20.5152 657.56C20.1818 657.667 19.8152 657.84 19.4152 658.08H18.6752V651.72H25.1952L25.0352 652.52Z" fill="black"/>
<path d="M7.62 689.72V703H6.7V690.76L3.36 692.86L2.92 692.16L6.84 689.72H7.62ZM15.5302 689.72V703H14.6102V690.76L11.2702 692.86L10.8302 692.16L14.7502 689.72H15.5302ZM23.5152 689.5C24.8352 689.5 25.8418 690.08 26.5352 691.24C27.2285 692.4 27.5752 694.113 27.5752 696.38C27.5752 698.633 27.2285 700.34 26.5352 701.5C25.8418 702.647 24.8352 703.22 23.5152 703.22C22.1952 703.22 21.1818 702.64 20.4752 701.48C19.7818 700.307 19.4352 698.593 19.4352 696.34C19.4352 694.087 19.7818 692.387 20.4752 691.24C21.1685 690.08 22.1818 689.5 23.5152 689.5ZM23.5152 690.28C22.5018 690.28 21.7285 690.78 21.1952 691.78C20.6618 692.78 20.3952 694.3 20.3952 696.34C20.3952 700.393 21.4352 702.42 23.5152 702.42C25.5818 702.42 26.6152 700.407 26.6152 696.38C26.6152 692.313 25.5818 690.28 23.5152 690.28Z" fill="black"/>
<path d="M7.62 270.72V284H6.7V271.76L3.36 273.86L2.92 273.16L6.84 270.72H7.62ZM15.965 275.38C16.9783 275.38 17.8117 275.733 18.465 276.44C19.1183 277.147 19.445 278.18 19.445 279.54C19.445 280.487 19.2783 281.313 18.945 282.02C18.625 282.727 18.1783 283.273 17.605 283.66C17.0317 284.033 16.3783 284.22 15.645 284.22C14.2183 284.22 13.1717 283.66 12.505 282.54C11.8517 281.42 11.525 279.94 11.525 278.1C11.525 276.54 11.7117 275.187 12.085 274.04C12.4717 272.893 13.0183 272.02 13.725 271.42C14.4317 270.807 15.265 270.5 16.225 270.5C16.705 270.5 17.1317 270.567 17.505 270.7C17.8783 270.82 18.245 271.007 18.605 271.26L18.185 271.92C17.865 271.707 17.545 271.547 17.225 271.44C16.9183 271.333 16.5783 271.28 16.205 271.28C15.0717 271.28 14.1783 271.847 13.525 272.98C12.8717 274.113 12.5183 275.6 12.465 277.44C13.385 276.067 14.5517 275.38 15.965 275.38ZM15.645 283.42C16.565 283.42 17.2717 283.067 17.765 282.36C18.2583 281.653 18.505 280.72 18.505 279.56C18.505 278.427 18.265 277.58 17.785 277.02C17.305 276.46 16.665 276.18 15.865 276.18C15.1583 276.18 14.5117 276.387 13.925 276.8C13.3517 277.2 12.865 277.76 12.465 278.48C12.505 280.067 12.7717 281.287 13.265 282.14C13.7717 282.993 14.565 283.42 15.645 283.42ZM28.418 271.52H22.958V276.28C23.6513 275.84 24.4246 275.62 25.278 275.62C26.4246 275.62 27.3313 275.987 27.998 276.72C28.6646 277.44 28.998 278.44 28.998 279.72C28.998 280.587 28.8246 281.367 28.478 282.06C28.1446 282.74 27.6646 283.273 27.038 283.66C26.4113 284.033 25.678 284.22 24.838 284.22C24.0646 284.22 23.378 284.087 22.778 283.82C22.1913 283.553 21.6446 283.16 21.138 282.64L21.758 282.08C22.1846 282.533 22.638 282.867 23.118 283.08C23.6113 283.293 24.1913 283.4 24.858 283.4C25.8313 283.4 26.6046 283.067 27.178 282.4C27.7513 281.733 28.038 280.833 28.038 279.7C28.038 278.607 27.7713 277.787 27.238 277.24C26.718 276.68 26.0113 276.4 25.118 276.4C24.6513 276.4 24.2446 276.453 23.898 276.56C23.5646 276.667 23.198 276.84 22.798 277.08H22.058V270.72H28.578L28.418 271.52Z" fill="black"/>
<path d="M7.62 308.72V322H6.7V309.76L3.36 311.86L2.92 311.16L6.84 308.72H7.62ZM15.965 313.38C16.9783 313.38 17.8117 313.733 18.465 314.44C19.1183 315.147 19.445 316.18 19.445 317.54C19.445 318.487 19.2783 319.313 18.945 320.02C18.625 320.727 18.1783 321.273 17.605 321.66C17.0317 322.033 16.3783 322.22 15.645 322.22C14.2183 322.22 13.1717 321.66 12.505 320.54C11.8517 319.42 11.525 317.94 11.525 316.1C11.525 314.54 11.7117 313.187 12.085 312.04C12.4717 310.893 13.0183 310.02 13.725 309.42C14.4317 308.807 15.265 308.5 16.225 308.5C16.705 308.5 17.1317 308.567 17.505 308.7C17.8783 308.82 18.245 309.007 18.605 309.26L18.185 309.92C17.865 309.707 17.545 309.547 17.225 309.44C16.9183 309.333 16.5783 309.28 16.205 309.28C15.0717 309.28 14.1783 309.847 13.525 310.98C12.8717 312.113 12.5183 313.6 12.465 315.44C13.385 314.067 14.5517 313.38 15.965 313.38ZM15.645 321.42C16.565 321.42 17.2717 321.067 17.765 320.36C18.2583 319.653 18.505 318.72 18.505 317.56C18.505 316.427 18.265 315.58 17.785 315.02C17.305 314.46 16.665 314.18 15.865 314.18C15.1583 314.18 14.5117 314.387 13.925 314.8C13.3517 315.2 12.865 315.76 12.465 316.48C12.505 318.067 12.7717 319.287 13.265 320.14C13.7717 320.993 14.565 321.42 15.645 321.42ZM25.9956 308.5C27.3156 308.5 28.3223 309.08 29.0156 310.24C29.709 311.4 30.0556 313.113 30.0556 315.38C30.0556 317.633 29.709 319.34 29.0156 320.5C28.3223 321.647 27.3156 322.22 25.9956 322.22C24.6756 322.22 23.6623 321.64 22.9556 320.48C22.2623 319.307 21.9156 317.593 21.9156 315.34C21.9156 313.087 22.2623 311.387 22.9556 310.24C23.649 309.08 24.6623 308.5 25.9956 308.5ZM25.9956 309.28C24.9823 309.28 24.209 309.78 23.6756 310.78C23.1423 311.78 22.8756 313.3 22.8756 315.34C22.8756 319.393 23.9156 321.42 25.9956 321.42C28.0623 321.42 29.0956 319.407 29.0956 315.38C29.0956 311.313 28.0623 309.28 25.9956 309.28Z" fill="black"/>
<path d="M6.62 194.72V208H5.7V195.76L2.36 197.86L1.92 197.16L5.84 194.72H6.62ZM17.065 194.72V195.46L11.745 208.14L10.865 207.84L16.085 195.52H9.765V194.72H17.065ZM25.4258 195.52H19.9658V200.28C20.6591 199.84 21.4324 199.62 22.2858 199.62C23.4324 199.62 24.3391 199.987 25.0058 200.72C25.6724 201.44 26.0058 202.44 26.0058 203.72C26.0058 204.587 25.8324 205.367 25.4858 206.06C25.1524 206.74 24.6724 207.273 24.0458 207.66C23.4191 208.033 22.6858 208.22 21.8458 208.22C21.0724 208.22 20.3858 208.087 19.7858 207.82C19.1991 207.553 18.6524 207.16 18.1458 206.64L18.7658 206.08C19.1924 206.533 19.6458 206.867 20.1258 207.08C20.6191 207.293 21.1991 207.4 21.8658 207.4C22.8391 207.4 23.6124 207.067 24.1858 206.4C24.7591 205.733 25.0458 204.833 25.0458 203.7C25.0458 202.607 24.7791 201.787 24.2458 201.24C23.7258 200.68 23.0191 200.4 22.1258 200.4C21.6591 200.4 21.2524 200.453 20.9058 200.56C20.5724 200.667 20.2058 200.84 19.8058 201.08H19.0658V194.72H25.5858L25.4258 195.52Z" fill="black"/>
<path d="M7.62 232.72V246H6.7V233.76L3.36 235.86L2.92 235.16L6.84 232.72H7.62ZM18.065 232.72V233.46L12.745 246.14L11.865 245.84L17.085 233.52H10.765V232.72H18.065ZM24.0034 232.5C25.3234 232.5 26.3301 233.08 27.0234 234.24C27.7168 235.4 28.0634 237.113 28.0634 239.38C28.0634 241.633 27.7168 243.34 27.0234 244.5C26.3301 245.647 25.3234 246.22 24.0034 246.22C22.6834 246.22 21.6701 245.64 20.9634 244.48C20.2701 243.307 19.9234 241.593 19.9234 239.34C19.9234 237.087 20.2701 235.387 20.9634 234.24C21.6568 233.08 22.6701 232.5 24.0034 232.5ZM24.0034 233.28C22.9901 233.28 22.2168 233.78 21.6834 234.78C21.1501 235.78 20.8834 237.3 20.8834 239.34C20.8834 243.393 21.9234 245.42 24.0034 245.42C26.0701 245.42 27.1034 243.407 27.1034 239.38C27.1034 235.313 26.0701 233.28 24.0034 233.28Z" fill="black"/>
<path d="M7.62 118.72V132H6.7V119.76L3.36 121.86L2.92 121.16L6.84 118.72H7.62ZM16.665 125C17.7183 125.427 18.4783 125.913 18.945 126.46C19.425 126.993 19.665 127.7 19.665 128.58C19.665 129.313 19.485 129.953 19.125 130.5C18.765 131.047 18.265 131.473 17.625 131.78C16.985 132.073 16.2517 132.22 15.425 132.22C14.585 132.22 13.845 132.067 13.205 131.76C12.5783 131.453 12.0917 131.027 11.745 130.48C11.4117 129.933 11.245 129.307 11.245 128.6C11.245 127.707 11.4983 126.947 12.005 126.32C12.5117 125.693 13.245 125.2 14.205 124.84C13.3783 124.48 12.7783 124.067 12.405 123.6C12.0317 123.133 11.845 122.527 11.845 121.78C11.845 121.1 12.0117 120.513 12.345 120.02C12.6783 119.527 13.1183 119.153 13.665 118.9C14.225 118.633 14.825 118.5 15.465 118.5C16.105 118.5 16.6983 118.627 17.245 118.88C17.805 119.133 18.2517 119.507 18.585 120C18.9317 120.493 19.105 121.087 19.105 121.78C19.105 122.487 18.9117 123.093 18.525 123.6C18.1383 124.093 17.5183 124.56 16.665 125ZM12.765 121.8C12.765 122.44 12.9383 122.953 13.285 123.34C13.645 123.727 14.285 124.093 15.205 124.44L15.945 124.72C16.7317 124.307 17.2983 123.88 17.645 123.44C17.9917 122.987 18.165 122.447 18.165 121.82C18.165 121.007 17.9117 120.38 17.405 119.94C16.9117 119.487 16.265 119.26 15.465 119.26C14.6783 119.26 14.0317 119.487 13.525 119.94C13.0183 120.38 12.765 121 12.765 121.8ZM15.445 131.4C16.4183 131.4 17.205 131.153 17.805 130.66C18.405 130.167 18.705 129.473 18.705 128.58C18.705 128.02 18.605 127.56 18.405 127.2C18.205 126.827 17.8917 126.507 17.465 126.24C17.0517 125.973 16.4717 125.7 15.725 125.42L15.005 125.14C14.0183 125.513 13.305 125.973 12.865 126.52C12.425 127.067 12.205 127.76 12.205 128.6C12.205 129.493 12.4983 130.187 13.085 130.68C13.6717 131.16 14.4583 131.4 15.445 131.4ZM28.7891 119.52H23.3291V124.28C24.0224 123.84 24.7957 123.62 25.6491 123.62C26.7957 123.62 27.7024 123.987 28.3691 124.72C29.0357 125.44 29.3691 126.44 29.3691 127.72C29.3691 128.587 29.1957 129.367 28.8491 130.06C28.5157 130.74 28.0357 131.273 27.4091 131.66C26.7824 132.033 26.0491 132.22 25.2091 132.22C24.4357 132.22 23.7491 132.087 23.1491 131.82C22.5624 131.553 22.0157 131.16 21.5091 130.64L22.1291 130.08C22.5557 130.533 23.0091 130.867 23.4891 131.08C23.9824 131.293 24.5624 131.4 25.2291 131.4C26.2024 131.4 26.9757 131.067 27.5491 130.4C28.1224 129.733 28.4091 128.833 28.4091 127.7C28.4091 126.607 28.1424 125.787 27.6091 125.24C27.0891 124.68 26.3824 124.4 25.4891 124.4C25.0224 124.4 24.6157 124.453 24.2691 124.56C23.9357 124.667 23.5691 124.84 23.1691 125.08H22.4291V118.72H28.9491L28.7891 119.52Z" fill="black"/>
<path d="M7.62 156.72V170H6.7V157.76L3.36 159.86L2.92 159.16L6.84 156.72H7.62ZM16.665 163C17.7183 163.427 18.4783 163.913 18.945 164.46C19.425 164.993 19.665 165.7 19.665 166.58C19.665 167.313 19.485 167.953 19.125 168.5C18.765 169.047 18.265 169.473 17.625 169.78C16.985 170.073 16.2517 170.22 15.425 170.22C14.585 170.22 13.845 170.067 13.205 169.76C12.5783 169.453 12.0917 169.027 11.745 168.48C11.4117 167.933 11.245 167.307 11.245 166.6C11.245 165.707 11.4983 164.947 12.005 164.32C12.5117 163.693 13.245 163.2 14.205 162.84C13.3783 162.48 12.7783 162.067 12.405 161.6C12.0317 161.133 11.845 160.527 11.845 159.78C11.845 159.1 12.0117 158.513 12.345 158.02C12.6783 157.527 13.1183 157.153 13.665 156.9C14.225 156.633 14.825 156.5 15.465 156.5C16.105 156.5 16.6983 156.627 17.245 156.88C17.805 157.133 18.2517 157.507 18.585 158C18.9317 158.493 19.105 159.087 19.105 159.78C19.105 160.487 18.9117 161.093 18.525 161.6C18.1383 162.093 17.5183 162.56 16.665 163ZM12.765 159.8C12.765 160.44 12.9383 160.953 13.285 161.34C13.645 161.727 14.285 162.093 15.205 162.44L15.945 162.72C16.7317 162.307 17.2983 161.88 17.645 161.44C17.9917 160.987 18.165 160.447 18.165 159.82C18.165 159.007 17.9117 158.38 17.405 157.94C16.9117 157.487 16.265 157.26 15.465 157.26C14.6783 157.26 14.0317 157.487 13.525 157.94C13.0183 158.38 12.765 159 12.765 159.8ZM15.445 169.4C16.4183 169.4 17.205 169.153 17.805 168.66C18.405 168.167 18.705 167.473 18.705 166.58C18.705 166.02 18.605 165.56 18.405 165.2C18.205 164.827 17.8917 164.507 17.465 164.24C17.0517 163.973 16.4717 163.7 15.725 163.42L15.005 163.14C14.0183 163.513 13.305 163.973 12.865 164.52C12.425 165.067 12.205 165.76 12.205 166.6C12.205 167.493 12.4983 168.187 13.085 168.68C13.6717 169.16 14.4583 169.4 15.445 169.4ZM26.2691 156.5C27.5891 156.5 28.5957 157.08 29.2891 158.24C29.9824 159.4 30.3291 161.113 30.3291 163.38C30.3291 165.633 29.9824 167.34 29.2891 168.5C28.5957 169.647 27.5891 170.22 26.2691 170.22C24.9491 170.22 23.9357 169.64 23.2291 168.48C22.5357 167.307 22.1891 165.593 22.1891 163.34C22.1891 161.087 22.5357 159.387 23.2291 158.24C23.9224 157.08 24.9357 156.5 26.2691 156.5ZM26.2691 157.28C25.2557 157.28 24.4824 157.78 23.9491 158.78C23.4157 159.78 23.1491 161.3 23.1491 163.34C23.1491 167.393 24.1891 169.42 26.2691 169.42C28.3357 169.42 29.3691 167.407 29.3691 163.38C29.3691 159.313 28.3357 157.28 26.2691 157.28Z" fill="black"/>
<path d="M6.62 42.72V56H5.7V43.76L2.36 45.86L1.92 45.16L5.84 42.72H6.62ZM14.205 42.5C15.525 42.5 16.5117 42.9733 17.165 43.92C17.8183 44.8533 18.145 46.1867 18.145 47.92C18.145 49.6 17.8983 50.98 17.405 52.06C16.9117 53.14 16.1917 54.0133 15.245 54.68C14.3117 55.3333 13.0983 55.8933 11.605 56.36L11.365 55.64C13.2317 55.0533 14.645 54.26 15.605 53.26C16.565 52.2467 17.0983 50.84 17.205 49.04C16.7917 49.6667 16.2983 50.1533 15.725 50.5C15.1517 50.8333 14.5183 51 13.825 51C13.145 51 12.5317 50.8333 11.985 50.5C11.4383 50.1533 11.0117 49.6667 10.705 49.04C10.3983 48.4133 10.245 47.68 10.245 46.84C10.245 45.96 10.4117 45.1933 10.745 44.54C11.0917 43.8867 11.565 43.3867 12.165 43.04C12.765 42.68 13.445 42.5 14.205 42.5ZM13.965 50.2C14.6317 50.2 15.225 50.0267 15.745 49.68C16.265 49.32 16.7517 48.7933 17.205 48.1C17.205 46.4733 16.965 45.2667 16.485 44.48C16.0183 43.68 15.265 43.28 14.225 43.28C13.2917 43.28 12.5517 43.5933 12.005 44.22C11.4717 44.8467 11.205 45.7267 11.205 46.86C11.205 47.9133 11.4517 48.7333 11.945 49.32C12.4517 49.9067 13.125 50.2 13.965 50.2ZM27.418 43.52H21.958V48.28C22.6513 47.84 23.4246 47.62 24.278 47.62C25.4246 47.62 26.3313 47.9867 26.998 48.72C27.6646 49.44 27.998 50.44 27.998 51.72C27.998 52.5867 27.8246 53.3667 27.478 54.06C27.1446 54.74 26.6646 55.2733 26.038 55.66C25.4113 56.0333 24.678 56.22 23.838 56.22C23.0646 56.22 22.378 56.0867 21.778 55.82C21.1913 55.5533 20.6446 55.16 20.138 54.64L20.758 54.08C21.1846 54.5333 21.638 54.8667 22.118 55.08C22.6113 55.2933 23.1913 55.4 23.858 55.4C24.8313 55.4 25.6046 55.0667 26.178 54.4C26.7513 53.7333 27.038 52.8333 27.038 51.7C27.038 50.6067 26.7713 49.7867 26.238 49.24C25.718 48.68 25.0113 48.4 24.118 48.4C23.6513 48.4 23.2446 48.4533 22.898 48.56C22.5646 48.6667 22.198 48.84 21.798 49.08H21.058V42.72H27.578L27.418 43.52Z" fill="black"/>
<path d="M5.48 5.5C6.56 5.5 7.42 5.82667 8.06 6.48C8.7 7.12 9.02 7.94 9.02 8.94C9.02 9.83333 8.84 10.6667 8.48 11.44C8.12 12.2 7.55333 13.04 6.78 13.96C6.02 14.8667 4.75333 16.2667 2.98 18.16H9.38L9.24 19H1.88V18.2C3.73333 16.2133 5.06 14.74 5.86 13.78C6.67333 12.8067 7.24 11.9733 7.56 11.28C7.89333 10.5733 8.06 9.81333 8.06 9C8.06 8.17333 7.82 7.52 7.34 7.04C6.87333 6.54667 6.24 6.3 5.44 6.3C4.8 6.3 4.23333 6.43333 3.74 6.7C3.24667 6.95333 2.79333 7.33333 2.38 7.84L1.72 7.36C2.24 6.72 2.8 6.25333 3.4 5.96C4 5.65333 4.69333 5.5 5.48 5.5ZM15.9331 5.5C17.2531 5.5 18.2598 6.08 18.9531 7.24C19.6465 8.4 19.9931 10.1133 19.9931 12.38C19.9931 14.6333 19.6465 16.34 18.9531 17.5C18.2598 18.6467 17.2531 19.22 15.9331 19.22C14.6131 19.22 13.5998 18.64 12.8931 17.48C12.1998 16.3067 11.8531 14.5933 11.8531 12.34C11.8531 10.0867 12.1998 8.38667 12.8931 7.24C13.5865 6.08 14.5998 5.5 15.9331 5.5ZM15.9331 6.28C14.9198 6.28 14.1465 6.78 13.6131 7.78C13.0798 8.78 12.8131 10.3 12.8131 12.34C12.8131 16.3933 13.8531 18.42 15.9331 18.42C17.9998 18.42 19.0331 16.4067 19.0331 12.38C19.0331 8.31333 17.9998 6.28 15.9331 6.28ZM26.8706 5.5C28.1906 5.5 29.1973 6.08 29.8906 7.24C30.584 8.4 30.9306 10.1133 30.9306 12.38C30.9306 14.6333 30.584 16.34 29.8906 17.5C29.1973 18.6467 28.1906 19.22 26.8706 19.22C25.5506 19.22 24.5373 18.64 23.8306 17.48C23.1373 16.3067 22.7906 14.5933 22.7906 12.34C22.7906 10.0867 23.1373 8.38667 23.8306 7.24C24.524 6.08 25.5373 5.5 26.8706 5.5ZM26.8706 6.28C25.8573 6.28 25.084 6.78 24.5506 7.78C24.0173 8.78 23.7506 10.3 23.7506 12.34C23.7506 16.3933 24.7906 18.42 26.8706 18.42C28.9373 18.42 29.9706 16.4067 29.9706 12.38C29.9706 8.31333 28.9373 6.28 26.8706 6.28Z" fill="black"/>
<path d="M7.62 80.72V94H6.7V81.76L3.36 83.86L2.92 83.16L6.84 80.72H7.62ZM15.205 80.5C16.525 80.5 17.5117 80.9733 18.165 81.92C18.8183 82.8533 19.145 84.1867 19.145 85.92C19.145 87.6 18.8983 88.98 18.405 90.06C17.9117 91.14 17.1917 92.0133 16.245 92.68C15.3117 93.3333 14.0983 93.8933 12.605 94.36L12.365 93.64C14.2317 93.0533 15.645 92.26 16.605 91.26C17.565 90.2467 18.0983 88.84 18.205 87.04C17.7917 87.6667 17.2983 88.1533 16.725 88.5C16.1517 88.8333 15.5183 89 14.825 89C14.145 89 13.5317 88.8333 12.985 88.5C12.4383 88.1533 12.0117 87.6667 11.705 87.04C11.3983 86.4133 11.245 85.68 11.245 84.84C11.245 83.96 11.4117 83.1933 11.745 82.54C12.0917 81.8867 12.565 81.3867 13.165 81.04C13.765 80.68 14.445 80.5 15.205 80.5ZM14.965 88.2C15.6317 88.2 16.225 88.0267 16.745 87.68C17.265 87.32 17.7517 86.7933 18.205 86.1C18.205 84.4733 17.965 83.2667 17.485 82.48C17.0183 81.68 16.265 81.28 15.225 81.28C14.2917 81.28 13.5517 81.5933 13.005 82.22C12.4717 82.8467 12.205 83.7267 12.205 84.86C12.205 85.9133 12.4517 86.7333 12.945 87.32C13.4517 87.9067 14.125 88.2 14.965 88.2ZM25.898 80.5C27.218 80.5 28.2246 81.08 28.918 82.24C29.6113 83.4 29.958 85.1133 29.958 87.38C29.958 89.6333 29.6113 91.34 28.918 92.5C28.2246 93.6467 27.218 94.22 25.898 94.22C24.578 94.22 23.5646 93.64 22.858 92.48C22.1646 91.3067 21.818 89.5933 21.818 87.34C21.818 85.0867 22.1646 83.3867 22.858 82.24C23.5513 81.08 24.5646 80.5 25.898 80.5ZM25.898 81.28C24.8846 81.28 24.1113 81.78 23.578 82.78C23.0446 83.78 22.778 85.3 22.778 87.34C22.778 91.3933 23.818 93.42 25.898 93.42C27.9646 93.42 28.998 91.4067 28.998 87.38C28.998 83.3133 27.9646 81.28 25.898 81.28Z" fill="black"/>
<path d="M8.62 422.72V436H7.7V423.76L4.36 425.86L3.92 425.16L7.84 422.72H8.62ZM20.645 431.64V432.44H18.825V436H17.925V432.44H12.065V431.72L16.145 422.5L16.925 422.82L13.045 431.64H17.925L18.025 427.64H18.825V431.64H20.645ZM29.1836 423.52H23.7236V428.28C24.4169 427.84 25.1903 427.62 26.0436 427.62C27.1903 427.62 28.0969 427.987 28.7636 428.72C29.4303 429.44 29.7636 430.44 29.7636 431.72C29.7636 432.587 29.5903 433.367 29.2436 434.06C28.9103 434.74 28.4303 435.273 27.8036 435.66C27.1769 436.033 26.4436 436.22 25.6036 436.22C24.8303 436.22 24.1436 436.087 23.5436 435.82C22.9569 435.553 22.4103 435.16 21.9036 434.64L22.5236 434.08C22.9503 434.533 23.4036 434.867 23.8836 435.08C24.3769 435.293 24.9569 435.4 25.6236 435.4C26.5969 435.4 27.3703 435.067 27.9436 434.4C28.5169 433.733 28.8036 432.833 28.8036 431.7C28.8036 430.607 28.5369 429.787 28.0036 429.24C27.4836 428.68 26.7769 428.4 25.8836 428.4C25.4169 428.4 25.0103 428.453 24.6636 428.56C24.3303 428.667 23.9636 428.84 23.5636 429.08H22.8236V422.72H29.3436L29.1836 423.52Z" fill="black"/>
<path d="M8.62 460.72V474H7.7V461.76L4.36 463.86L3.92 463.16L7.84 460.72H8.62ZM20.645 469.64V470.44H18.825V474H17.925V470.44H12.065V469.72L16.145 460.5L16.925 460.82L13.045 469.64H17.925L18.025 465.64H18.825V469.64H20.645ZM26.8589 460.5C28.1789 460.5 29.1856 461.08 29.8789 462.24C30.5722 463.4 30.9189 465.113 30.9189 467.38C30.9189 469.633 30.5722 471.34 29.8789 472.5C29.1856 473.647 28.1789 474.22 26.8589 474.22C25.5389 474.22 24.5256 473.64 23.8189 472.48C23.1256 471.307 22.7789 469.593 22.7789 467.34C22.7789 465.087 23.1256 463.387 23.8189 462.24C24.5122 461.08 25.5256 460.5 26.8589 460.5ZM26.8589 461.28C25.8456 461.28 25.0722 461.78 24.5389 462.78C24.0056 463.78 23.7389 465.3 23.7389 467.34C23.7389 471.393 24.7789 473.42 26.8589 473.42C28.9256 473.42 29.9589 471.407 29.9589 467.38C29.9589 463.313 28.9256 461.28 26.8589 461.28Z" fill="black"/>
<path d="M7.62 346.72V360H6.7V347.76L3.36 349.86L2.92 349.16L6.84 346.72H7.62ZM18.125 347.52H12.665V352.28C13.3583 351.84 14.1317 351.62 14.985 351.62C16.1317 351.62 17.0383 351.987 17.705 352.72C18.3717 353.44 18.705 354.44 18.705 355.72C18.705 356.587 18.5317 357.367 18.185 358.06C17.8517 358.74 17.3717 359.273 16.745 359.66C16.1183 360.033 15.385 360.22 14.545 360.22C13.7717 360.22 13.085 360.087 12.485 359.82C11.8983 359.553 11.3517 359.16 10.845 358.64L11.465 358.08C11.8917 358.533 12.345 358.867 12.825 359.08C13.3183 359.293 13.8983 359.4 14.565 359.4C15.5383 359.4 16.3117 359.067 16.885 358.4C17.4583 357.733 17.745 356.833 17.745 355.7C17.745 354.607 17.4783 353.787 16.945 353.24C16.425 352.68 15.7183 352.4 14.825 352.4C14.3583 352.4 13.9517 352.453 13.605 352.56C13.2717 352.667 12.905 352.84 12.505 353.08H11.765V346.72H18.285L18.125 347.52ZM27.6758 347.52H22.2158V352.28C22.9091 351.84 23.6824 351.62 24.5358 351.62C25.6824 351.62 26.5891 351.987 27.2558 352.72C27.9224 353.44 28.2558 354.44 28.2558 355.72C28.2558 356.587 28.0824 357.367 27.7358 358.06C27.4024 358.74 26.9224 359.273 26.2958 359.66C25.6691 360.033 24.9358 360.22 24.0958 360.22C23.3224 360.22 22.6358 360.087 22.0358 359.82C21.4491 359.553 20.9024 359.16 20.3958 358.64L21.0158 358.08C21.4424 358.533 21.8958 358.867 22.3758 359.08C22.8691 359.293 23.4491 359.4 24.1158 359.4C25.0891 359.4 25.8624 359.067 26.4358 358.4C27.0091 357.733 27.2958 356.833 27.2958 355.7C27.2958 354.607 27.0291 353.787 26.4958 353.24C25.9758 352.68 25.2691 352.4 24.3758 352.4C23.9091 352.4 23.5024 352.453 23.1558 352.56C22.8224 352.667 22.4558 352.84 22.0558 353.08H21.3158V346.72H27.8358L27.6758 347.52Z" fill="black"/>
<path d="M8.62 384.72V398H7.7V385.76L4.36 387.86L3.92 387.16L7.84 384.72H8.62ZM19.125 385.52H13.665V390.28C14.3583 389.84 15.1317 389.62 15.985 389.62C17.1317 389.62 18.0383 389.987 18.705 390.72C19.3717 391.44 19.705 392.44 19.705 393.72C19.705 394.587 19.5317 395.367 19.185 396.06C18.8517 396.74 18.3717 397.273 17.745 397.66C17.1183 398.033 16.385 398.22 15.545 398.22C14.7717 398.22 14.085 398.087 13.485 397.82C12.8983 397.553 12.3517 397.16 11.845 396.64L12.465 396.08C12.8917 396.533 13.345 396.867 13.825 397.08C14.3183 397.293 14.8983 397.4 15.565 397.4C16.5383 397.4 17.3117 397.067 17.885 396.4C18.4583 395.733 18.745 394.833 18.745 393.7C18.745 392.607 18.4783 391.787 17.945 391.24C17.425 390.68 16.7183 390.4 15.825 390.4C15.3583 390.4 14.9517 390.453 14.605 390.56C14.2717 390.667 13.905 390.84 13.505 391.08H12.765V384.72H19.285L19.125 385.52ZM26.2534 384.5C27.5734 384.5 28.5801 385.08 29.2734 386.24C29.9668 387.4 30.3134 389.113 30.3134 391.38C30.3134 393.633 29.9668 395.34 29.2734 396.5C28.5801 397.647 27.5734 398.22 26.2534 398.22C24.9334 398.22 23.9201 397.64 23.2134 396.48C22.5201 395.307 22.1734 393.593 22.1734 391.34C22.1734 389.087 22.5201 387.387 23.2134 386.24C23.9068 385.08 24.9201 384.5 26.2534 384.5ZM26.2534 385.28C25.2401 385.28 24.4668 385.78 23.9334 386.78C23.4001 387.78 23.1334 389.3 23.1334 391.34C23.1334 395.393 24.1734 397.42 26.2534 397.42C28.3201 397.42 29.3534 395.407 29.3534 391.38C29.3534 387.313 28.3201 385.28 26.2534 385.28Z" fill="black"/>
<path d="M7.62 574.72V588H6.7V575.76L3.36 577.86L2.92 577.16L6.84 574.72H7.62ZM14.605 574.5C15.685 574.5 16.545 574.827 17.185 575.48C17.825 576.12 18.145 576.94 18.145 577.94C18.145 578.833 17.965 579.667 17.605 580.44C17.245 581.2 16.6783 582.04 15.905 582.96C15.145 583.867 13.8783 585.267 12.105 587.16H18.505L18.365 588H11.005V587.2C12.8583 585.213 14.185 583.74 14.985 582.78C15.7983 581.807 16.365 580.973 16.685 580.28C17.0183 579.573 17.185 578.813 17.185 578C17.185 577.173 16.945 576.52 16.465 576.04C15.9983 575.547 15.365 575.3 14.565 575.3C13.925 575.3 13.3583 575.433 12.865 575.7C12.3717 575.953 11.9183 576.333 11.505 576.84L10.845 576.36C11.365 575.72 11.925 575.253 12.525 574.96C13.125 574.653 13.8183 574.5 14.605 574.5ZM27.5781 575.52H22.1181V580.28C22.8115 579.84 23.5848 579.62 24.4381 579.62C25.5848 579.62 26.4915 579.987 27.1581 580.72C27.8248 581.44 28.1581 582.44 28.1581 583.72C28.1581 584.587 27.9848 585.367 27.6381 586.06C27.3048 586.74 26.8248 587.273 26.1981 587.66C25.5715 588.033 24.8381 588.22 23.9981 588.22C23.2248 588.22 22.5381 588.087 21.9381 587.82C21.3515 587.553 20.8048 587.16 20.2981 586.64L20.9181 586.08C21.3448 586.533 21.7981 586.867 22.2781 587.08C22.7715 587.293 23.3515 587.4 24.0181 587.4C24.9915 587.4 25.7648 587.067 26.3381 586.4C26.9115 585.733 27.1981 584.833 27.1981 583.7C27.1981 582.607 26.9315 581.787 26.3981 581.24C25.8781 580.68 25.1715 580.4 24.2781 580.4C23.8115 580.4 23.4048 580.453 23.0581 580.56C22.7248 580.667 22.3581 580.84 21.9581 581.08H21.2181V574.72H27.7381L27.5781 575.52Z" fill="black"/>
<path d="M7.62 612.72V626H6.7V613.76L3.36 615.86L2.92 615.16L6.84 612.72H7.62ZM14.605 612.5C15.685 612.5 16.545 612.827 17.185 613.48C17.825 614.12 18.145 614.94 18.145 615.94C18.145 616.833 17.965 617.667 17.605 618.44C17.245 619.2 16.6783 620.04 15.905 620.96C15.145 621.867 13.8783 623.267 12.105 625.16H18.505L18.365 626H11.005V625.2C12.8583 623.213 14.185 621.74 14.985 620.78C15.7983 619.807 16.365 618.973 16.685 618.28C17.0183 617.573 17.185 616.813 17.185 616C17.185 615.173 16.945 614.52 16.465 614.04C15.9983 613.547 15.365 613.3 14.565 613.3C13.925 613.3 13.3583 613.433 12.865 613.7C12.3717 613.953 11.9183 614.333 11.505 614.84L10.845 614.36C11.365 613.72 11.925 613.253 12.525 612.96C13.125 612.653 13.8183 612.5 14.605 612.5ZM25.0581 612.5C26.3781 612.5 27.3848 613.08 28.0781 614.24C28.7715 615.4 29.1181 617.113 29.1181 619.38C29.1181 621.633 28.7715 623.34 28.0781 624.5C27.3848 625.647 26.3781 626.22 25.0581 626.22C23.7381 626.22 22.7248 625.64 22.0181 624.48C21.3248 623.307 20.9781 621.593 20.9781 619.34C20.9781 617.087 21.3248 615.387 22.0181 614.24C22.7115 613.08 23.7248 612.5 25.0581 612.5ZM25.0581 613.28C24.0448 613.28 23.2715 613.78 22.7381 614.78C22.2048 615.78 21.9381 617.3 21.9381 619.34C21.9381 623.393 22.9781 625.42 25.0581 625.42C27.1248 625.42 28.1581 623.407 28.1581 619.38C28.1581 615.313 27.1248 613.28 25.0581 613.28Z" fill="black"/>
<path d="M6.62 498.72V512H5.7V499.76L2.36 501.86L1.92 501.16L5.84 498.72H6.62ZM13.505 498.5C14.5983 498.5 15.465 498.813 16.105 499.44C16.7583 500.053 17.085 500.84 17.085 501.8C17.085 502.68 16.8383 503.393 16.345 503.94C15.8517 504.473 15.2183 504.8 14.445 504.92C15.3117 504.947 16.025 505.26 16.585 505.86C17.1583 506.447 17.445 507.253 17.445 508.28C17.445 509.04 17.2717 509.72 16.925 510.32C16.5917 510.92 16.1117 511.387 15.485 511.72C14.8583 512.053 14.1317 512.22 13.305 512.22C11.825 512.22 10.5783 511.653 9.565 510.52L10.165 510C10.6317 510.507 11.1117 510.867 11.605 511.08C12.0983 511.293 12.6583 511.4 13.285 511.4C14.285 511.4 15.065 511.12 15.625 510.56C16.1983 509.987 16.485 509.233 16.485 508.3C16.485 507.3 16.2117 506.56 15.665 506.08C15.1183 505.6 14.3583 505.36 13.385 505.36H12.545L12.665 504.6H13.305C14.0917 504.6 14.7583 504.367 15.305 503.9C15.865 503.42 16.145 502.733 16.145 501.84C16.145 501.053 15.8983 500.433 15.405 499.98C14.925 499.527 14.2783 499.3 13.465 499.3C12.8917 499.3 12.365 499.4 11.885 499.6C11.405 499.8 10.925 500.12 10.445 500.56L9.945 499.98C10.4517 499.487 10.9917 499.12 11.565 498.88C12.1383 498.627 12.785 498.5 13.505 498.5ZM26.7734 499.52H21.3134V504.28C22.0068 503.84 22.7801 503.62 23.6334 503.62C24.7801 503.62 25.6868 503.987 26.3534 504.72C27.0201 505.44 27.3534 506.44 27.3534 507.72C27.3534 508.587 27.1801 509.367 26.8334 510.06C26.5001 510.74 26.0201 511.273 25.3934 511.66C24.7668 512.033 24.0334 512.22 23.1934 512.22C22.4201 512.22 21.7334 512.087 21.1334 511.82C20.5468 511.553 20.0001 511.16 19.4934 510.64L20.1134 510.08C20.5401 510.533 20.9934 510.867 21.4734 511.08C21.9668 511.293 22.5468 511.4 23.2134 511.4C24.1868 511.4 24.9601 511.067 25.5334 510.4C26.1068 509.733 26.3934 508.833 26.3934 507.7C26.3934 506.607 26.1268 505.787 25.5934 505.24C25.0734 504.68 24.3668 504.4 23.4734 504.4C23.0068 504.4 22.6001 504.453 22.2534 504.56C21.9201 504.667 21.5534 504.84 21.1534 505.08H20.4134V498.72H26.9334L26.7734 499.52Z" fill="black"/>
<path d="M7.62 536.72V550H6.7V537.76L3.36 539.86L2.92 539.16L6.84 536.72H7.62ZM14.505 536.5C15.5983 536.5 16.465 536.813 17.105 537.44C17.7583 538.053 18.085 538.84 18.085 539.8C18.085 540.68 17.8383 541.393 17.345 541.94C16.8517 542.473 16.2183 542.8 15.445 542.92C16.3117 542.947 17.025 543.26 17.585 543.86C18.1583 544.447 18.445 545.253 18.445 546.28C18.445 547.04 18.2717 547.72 17.925 548.32C17.5917 548.92 17.1117 549.387 16.485 549.72C15.8583 550.053 15.1317 550.22 14.305 550.22C12.825 550.22 11.5783 549.653 10.565 548.52L11.165 548C11.6317 548.507 12.1117 548.867 12.605 549.08C13.0983 549.293 13.6583 549.4 14.285 549.4C15.285 549.4 16.065 549.12 16.625 548.56C17.1983 547.987 17.485 547.233 17.485 546.3C17.485 545.3 17.2117 544.56 16.665 544.08C16.1183 543.6 15.3583 543.36 14.385 543.36H13.545L13.665 542.6H14.305C15.0917 542.6 15.7583 542.367 16.305 541.9C16.865 541.42 17.145 540.733 17.145 539.84C17.145 539.053 16.8983 538.433 16.405 537.98C15.925 537.527 15.2783 537.3 14.465 537.3C13.8917 537.3 13.365 537.4 12.885 537.6C12.405 537.8 11.925 538.12 11.445 538.56L10.945 537.98C11.4517 537.487 11.9917 537.12 12.565 536.88C13.1383 536.627 13.785 536.5 14.505 536.5ZM25.2534 536.5C26.5734 536.5 27.5801 537.08 28.2734 538.24C28.9668 539.4 29.3134 541.113 29.3134 543.38C29.3134 545.633 28.9668 547.34 28.2734 548.5C27.5801 549.647 26.5734 550.22 25.2534 550.22C23.9334 550.22 22.9201 549.64 22.2134 548.48C21.5201 547.307 21.1734 545.593 21.1734 543.34C21.1734 541.087 21.5201 539.387 22.2134 538.24C22.9068 537.08 23.9201 536.5 25.2534 536.5ZM25.2534 537.28C24.2401 537.28 23.4668 537.78 22.9334 538.78C22.4001 539.78 22.1334 541.3 22.1334 543.34C22.1334 547.393 23.1734 549.42 25.2534 549.42C27.3201 549.42 28.3534 547.407 28.3534 543.38C28.3534 539.313 27.3201 537.28 25.2534 537.28Z" fill="black"/>
</svg>
