<svg width="278" height="151" viewBox="0 0 278 151" fill="none" xmlns="http://www.w3.org/2000/svg">
<path d="M46.6048 93.66C48.0651 92.7787 49.6409 91.839 51.278 90.8717C56.0744 88.0338 61.4134 84.9707 65.7708 82.5545C67.5943 81.5429 66.7534 82.2014 68.0254 81.5071C70.5065 80.1553 72.7636 78.7867 75.2297 77.4826C76.0515 77.0496 75.1687 77.8314 76.0197 77.3781C80.7152 74.8784 85.0988 72.3955 89.8639 69.8928C98.336 65.4474 106.815 61.1508 115.381 57.0026C130.578 49.6522 145.985 42.7737 161.823 36.1179C169.987 32.6807 180.057 28.8831 188.508 25.377C189.494 24.9667 188.785 24.9033 188.965 24.8037C191.778 23.2503 191.03 24.2454 192.996 23.5652C195.254 22.785 197.59 21.9562 199.926 21.1127C205.687 19.0321 211.555 16.8305 216.83 14.8102C219.985 13.6036 216.577 14.1171 219.901 13.3189C220.134 13.2624 219.442 13.8985 220.334 13.6186C222.337 12.9888 226.084 11.5905 227.625 11.083C230.607 10.1015 231.105 9.92574 233.913 8.9653C237.759 7.65517 242.398 6.30065 246.51 4.8686C247.393 4.55973 246.106 4.5668 247.484 4.0464C248.88 3.51873 252.635 2.34323 253.914 2.03416C253.947 2.02629 253.978 2.01896 254.009 2.01214C255.196 1.74017 254.767 2.19096 255.006 2.18805C256.042 2.18741 257.485 1.62485 259.086 1.11832C259.18 1.08976 259.301 1.0569 259.431 1.02663C259.572 0.995933 259.64 0.973823 259.861 0.94765C259.963 0.936321 260.07 0.928099 260.196 0.928505C260.265 0.929569 260.307 0.928804 260.42 0.940508C260.552 0.95595 260.706 0.982177 260.901 1.05006C261.093 1.11874 261.335 1.23171 261.585 1.45473C261.864 1.6783 262.2 2.24555 262.234 2.70693C262.263 2.94021 262.247 3.14894 262.216 3.32176C262.185 3.49538 262.132 3.64246 262.115 3.68824C262.066 3.82363 262.013 3.93097 261.963 4.02262C261.861 4.20483 261.768 4.32843 261.682 4.43694C261.627 4.50737 261.581 4.5628 261.533 4.61896C261.44 4.72728 261.336 4.83421 261.256 4.9157C261.128 5.05156 260.997 5.17991 260.862 5.30528C260.647 5.51394 260.453 5.69048 260.285 5.83663C260.15 5.95917 260.041 6.05208 259.977 6.09781C250.944 12.2226 242.741 16.0989 234.078 21.0641C230.621 23.0261 227.148 25.0443 223.586 27.1052C220.444 28.9247 217.237 30.7748 214.224 32.4634C206.742 36.6553 200.271 40.0286 193.017 44.1605C192.252 44.5961 193.408 44.5466 192.472 45.081C182.504 50.7721 172.639 56.2673 162.517 61.5388C161.499 62.0683 162.555 60.9275 161.523 61.4314C155.253 64.5081 145.141 69.0655 142.556 72.9479C138.394 75.1915 133.344 77.9298 129.442 79.6231C126.926 80.715 128.975 78.9503 126.164 80.7881C125.53 81.2018 126.617 81.1331 125.649 81.7227C121.568 84.2096 116.937 86.6296 112.952 89.1457C112.136 89.6623 112.574 89.9062 112.373 90.107C110.669 91.7786 106.875 92.7245 106.099 93.0728C100.306 95.6766 96.4119 98.109 91.2452 100.987C90.057 101.648 91.7426 101.372 90.6109 102.026C84.6927 105.438 78.5051 108.848 72.5653 111.872C71.227 112.553 72.1859 111.441 71.5346 111.743C68.6709 113.078 68.5796 114.217 65.8231 115.524C65.2498 115.796 65.3512 115.245 65.2272 115.26C63.2915 115.49 62.4596 117.163 62.0466 117.421C57.3053 120.423 53.5298 121.382 48.9838 123.984C48.7823 124.099 48.5799 124.217 48.3767 124.337C47.783 124.692 49.4078 124.415 47.7289 125.378C36.6973 131.711 24.8932 138.135 13.6606 143.839C11.9293 144.717 12.941 143.68 12.8187 143.689C10.6503 143.965 10.057 145.523 9.49693 145.877C8.34543 146.598 7.18476 147.223 6.02605 147.814C5.47764 148.093 4.86742 148.397 4.31178 148.667C4.02569 148.806 3.75625 148.937 3.44699 149.082C3.37772 149.114 3.30185 149.149 3.21923 149.186C3.14065 149.222 3.0681 149.254 2.9715 149.295C2.89188 149.329 2.77578 149.377 2.65567 149.418C2.55759 149.449 2.51202 149.469 2.325 149.507C2.21421 149.525 2.17906 149.541 1.9303 149.54C1.82099 149.537 1.71272 149.527 1.5773 149.495C1.41769 149.458 1.26916 149.394 1.18168 149.348C0.77693 149.181 0.315128 148.534 0.284044 148.114C0.221992 147.688 0.291 147.477 0.329779 147.314C0.421981 147.002 0.506035 146.87 0.577626 146.74C0.723255 146.492 0.838459 146.343 0.953815 146.193C1.18019 145.902 1.38965 145.664 1.58987 145.435C1.99424 144.976 2.36649 144.56 2.71415 144.139C3.22762 143.517 3.69933 142.888 4.09184 142.239C8.33986 138.975 12.6772 136.308 17.0213 133.569C27.2355 127.174 37.8177 121.373 48.5533 116.194C52.335 114.373 56.1521 112.628 60 110.977C60.2503 110.868 60.0503 111.566 60.5491 111.346C66.482 108.753 65.0166 108.551 68.3905 105.774C69.2844 105.055 72.7196 104.762 73.0461 104.705C74.154 104.54 73.5013 105.739 73.852 105.642C76.6621 104.851 75.1637 102.645 78.6876 100.964C78.8014 100.915 78.5402 101.576 78.861 101.477C79.8609 101.168 80.7126 100.55 81.6792 100.277C82.8012 99.9589 83.6948 99.999 84.6752 99.8398C85.6205 99.6955 86.6434 99.3579 88.0921 98.2672C88.4595 97.9885 87.2066 96.9261 90.4192 95.4996C91.7384 94.9125 97.3372 92.2773 98.9593 91.6338C100.587 90.9856 99.699 91.9258 99.8208 91.8923C104.349 90.4941 102.832 91.4868 105.37 91.3471C107.904 91.2056 106.365 89.4624 107.131 88.8353C107.894 88.2106 111.252 87.2411 112.086 87.058C112.929 86.8708 112.099 87.5862 112.824 87.3663C117.649 85.8895 114.353 85.4503 115.698 84.4461C118.87 82.0763 122.295 82.3235 125.585 81.0002C126.473 80.6433 125.607 80.6264 126.368 80.2414C129.397 78.7158 131.448 78.3453 134.761 76.3272C135.297 75.9993 137.73 73.8172 139.857 73.6468C140.16 73.6241 139.591 74.3289 140.94 73.8183C142.957 73.0552 146.524 71.5394 148.578 70.4635C150.093 69.6694 148.033 69.8652 150.078 69.1706C150.987 68.8623 149.534 69.9467 151.228 69.3376C152.912 68.7327 157.069 66.8396 158.643 66.116C160.22 65.3909 159.147 65.3206 159.26 65.2321C159.956 64.7053 162.888 63.1203 163.155 63.0013C176.655 56.8709 189.479 52.0522 202.553 45.8969C203.582 45.4137 202.679 45.2493 202.834 45.1707C206.278 43.3924 204.039 45.9047 206.714 45.2108C205.922 44.4141 207.483 43.9237 209.904 42.7137C211.097 42.1178 210.268 42.0445 210.363 41.9568C211.911 40.5899 213.446 40.7741 213.836 40.7771C215.281 40.784 216.273 39.5666 217.228 39.5756C218.188 39.578 216.575 40.9447 218.977 39.8578C219.501 39.2141 217.311 39.1283 219.077 38.164C221.48 36.8452 224.882 35.2836 228.345 33.7803C234.366 31.1659 240.789 28.6076 244.286 27.0671C249.749 24.6624 251.542 23.7609 254.764 22.4109C260.6 19.9462 258.202 20.297 261.598 18.3271C265.001 16.3271 264.015 18.6977 264.697 18.7753C265.365 18.854 265.737 18.2468 266.446 18.1126C267.158 17.9752 265.932 18.8832 267.419 18.2048C268.414 17.7557 270.429 16.3425 271.612 15.2137C272.194 14.6773 272.607 14.2312 272.7 14.0232C272.985 13.356 272.596 13.1155 272.587 12.7908C272.584 12.7103 272.613 12.6177 272.66 12.5252C272.69 12.4744 272.723 12.4242 272.754 12.377C272.773 12.3518 272.786 12.3301 272.786 12.3205C272.785 12.3162 272.776 12.3175 272.746 12.3414C272.734 12.3525 272.708 12.3676 272.619 12.4766C272.576 12.5332 272.517 12.608 272.441 12.7728C272.422 12.8145 272.403 12.8625 272.384 12.9196C272.374 12.9481 272.365 12.9789 272.357 13.0123C272.347 13.0461 272.323 13.1581 272.315 13.2533C272.234 13.6388 272.547 14.4236 272.998 14.6648C273.421 14.9264 273.681 14.9054 273.818 14.9151C273.867 14.9158 273.908 14.9141 273.944 14.9116C274.014 14.9066 274.061 14.8991 274.098 14.8927C274.17 14.88 274.206 14.8693 274.218 14.8672C274.239 14.8634 274.241 14.8646 274.232 14.8704C274.208 14.8847 274.179 14.9007 274.122 14.9289C274.029 14.9758 273.884 15.0459 273.742 15.1123C273.436 15.2563 273.042 15.4329 272.559 15.6405C272.332 15.7379 272.842 14.9746 271.974 15.3736C267.938 17.2611 263.895 19.3899 259.848 21.499C257.109 22.9292 254.359 24.3658 251.632 25.7382C250.717 26.1977 251.286 25.3327 250.748 25.597C245.113 28.3697 247.475 27.9872 244.898 30.4317C244.995 29.0181 242.983 29.3009 238.823 31.597C236.313 32.9804 237.004 33.1866 235.557 34.3978C235.112 34.7674 233.188 35.4246 232.978 35.8148C232.295 37.0871 234.391 36.9427 229.919 38.9901C229.72 39.0796 230.12 38.373 229.451 38.7095C225.159 40.8641 225.048 41.8528 220.527 44.4158C216.984 46.4237 210.382 49.4285 206.257 51.5464C205.742 50.3867 202.026 52.7123 200.865 54.307C198.191 55.6893 195.343 57.2506 192.715 58.4997C191.811 58.9299 192.225 58.3074 192.096 58.3319C190.101 58.6978 189.329 60.0366 188.769 60.3654C182.671 63.904 177.308 65.9816 171.574 69.5465C171.384 69.6648 171.394 70.4747 169.858 70.7924C169.754 70.8143 169.643 70.834 169.524 70.8512C169.487 70.8558 169.628 70.7367 169.764 70.6069C169.977 70.4031 170.176 70.1727 169.641 70.3624C169.395 70.4501 168.994 70.6259 168.375 70.9294C165.54 72.3189 160.006 74.5761 156.221 76.8226C155.31 77.3659 153.168 79.1165 151.002 79.5876C150.711 79.65 150.898 79.3086 150.468 79.3732C149.087 79.5849 148.771 80.6207 147.054 80.6818C145.353 80.7334 142.169 81.6923 138.361 83.9513C138.256 84.0145 137.522 85.0349 136.275 85.5888C134.232 86.4987 131.308 87.665 129.191 88.5907C128.162 89.0407 128.972 89.0999 128.796 89.1839C126.103 90.4409 123.665 91.462 121.254 92.368C120.006 92.8355 118.807 93.261 117.538 93.6526C116.898 93.845 116.264 94.0361 115.574 94.1523C115.467 94.1695 115.367 94.1816 115.278 94.1871C115.233 94.1899 115.19 94.1911 115.149 94.1905C115.086 94.1902 115.013 94.1854 114.947 94.1698C114.871 94.1424 114.842 94.1654 114.709 94.0286C114.593 93.9036 114.658 93.6731 114.672 93.6623C114.715 93.5576 114.815 93.4436 114.877 93.3815C114.977 93.2792 115.183 93.1084 115.293 93.0284C115.422 92.9312 115.572 92.8246 115.744 92.7072C116.932 91.9159 118.28 91.1592 119.712 90.3514C120.981 89.6279 124.409 87.1498 127.092 86.1332C130.066 84.9989 128.032 88.0504 134.134 84.2964C136.6 82.7801 138.844 79.1871 143.953 77.777C152.767 72.911 161.317 69.1743 170.181 64.3486C170.58 64.1318 171.625 63.0098 172.586 62.5441C174.012 61.8529 174.902 61.6924 175.924 61.2067C180.207 59.1774 184.012 57.0877 188.142 55.13C189.716 54.3836 189.278 54.8666 191.139 53.985C192.214 53.4759 193.032 52.9716 194.013 52.4379C194.764 52.0299 195.608 51.6051 196.712 51.1525C198.684 50.3455 200.863 50.014 203.427 48.8835C203.265 48.2779 205.017 47.4661 208.053 45.8854C208.643 45.5785 207.908 45.6863 208.183 45.5314C209.303 44.8963 210.419 44.5749 211.481 43.9617C211.737 43.8143 211.665 43.6237 211.869 43.4933C213.593 42.3813 216.854 41.4132 217.408 41.2486C219.545 40.6124 220.374 39.9617 221.98 39.3751C223.568 38.795 221.322 39.9475 223.148 39.2122C226.954 37.6763 231.754 35.5464 235.589 33.9176C237.117 33.2669 235.98 33.4882 236.196 33.3898C239.331 31.9902 242.63 30.8796 244.208 29.7203C246.864 29.9198 246.072 28.8158 250.708 27.1814C251.074 27.0535 251.737 27.374 250.394 28.0151C249.057 28.6544 246.908 29.3543 245.061 30.2666C244.62 30.4812 242.26 32.0598 241.919 32.2435C239.281 33.6496 238.552 33.013 238.388 33.029C236.53 33.2492 233.64 35.1408 232.826 35.5448C229.139 37.3571 225.895 38.6517 222.818 40.1871C220.799 41.1946 220.867 41.8513 219.246 42.5701C213.9 44.956 211.657 44.9854 206.988 48.054C205.981 48.718 207.365 48.865 203.28 50.1749C203.034 50.253 199.953 51.1304 198.461 52.2257C198.272 52.3641 198.372 52.5581 198.106 52.7068C196.935 53.3599 195.985 53.7658 194.892 54.2765C194.346 54.5312 193.767 54.8117 193.111 55.1642C191.16 56.2101 188.849 57.4907 186.559 58.5375C185.179 59.1691 183.252 59.6456 182.552 59.8743C180.586 60.5062 178.836 61.9391 177.536 62.1702C176.223 62.4025 178.214 60.7777 175.095 62.0491C175.256 62.6557 175.28 63.3495 175.376 63.9949C168.797 67.2793 162.251 70.3782 155.706 73.7842C154.898 74.2059 155.891 74.0903 155.022 74.5554C151.38 76.5064 148.053 77.9514 144.307 80.0394C141.4 81.6616 138.369 83.7174 135.367 85.4542C133.13 85.7529 128.735 88.4414 125.461 90.2055C124.285 90.839 124.322 90.5671 123.438 90.9879C120.284 92.4969 122.057 92.3232 121.317 92.8888C119.583 94.2302 118.429 94.5256 117.289 94.8629C117.015 94.9607 116.813 95.0146 116.66 95.0511C116.638 95.0439 116.607 95.0549 116.65 94.9756C116.673 94.932 116.716 94.8641 116.78 94.7282C116.812 94.6598 116.849 94.5733 116.884 94.4576C116.894 94.4264 116.9 94.4056 116.912 94.3582C116.93 94.2942 116.946 94.2223 116.958 94.1417C116.982 93.9811 116.993 93.7822 116.961 93.5578C116.91 93.1065 116.614 92.586 116.288 92.3224C116.208 92.2537 116.129 92.1967 116.053 92.1494C116.001 92.1174 115.962 92.096 115.919 92.0739C115.834 92.0311 115.757 91.9999 115.688 91.9762C115.41 91.8848 115.262 91.8912 115.177 91.8934C115.04 91.9073 115.073 91.9293 115.092 91.9401C115.471 92.0106 116.403 91.8133 117.397 91.4475C117.669 91.3678 120.204 89.4158 120.57 89.1935C122.967 87.8087 121.102 89.3211 122.713 88.7248C125.664 87.6164 127.753 86.9449 131.005 85.1889C131.94 84.6824 134.084 83.0654 136.148 82.6078C136.423 82.546 136.414 82.8932 136.624 82.8163C140.396 81.4052 140.065 80.4671 142.014 79.173C143.921 77.8963 147.436 76.9643 148.156 76.8385C150.068 76.4883 146.964 77.6589 146.877 77.755C146.05 78.8177 148.335 77.61 150.145 76.7904C150.839 77.5514 153.287 76.302 152.006 75.9423C151.857 75.9083 150.535 76.6524 150.145 76.7904C151.282 75.1668 153.954 73.713 157.363 73.0499C158.958 72.739 157.861 73.8513 162.052 71.5604C163.953 70.5173 162.888 70.2716 164.516 69.2378C165.595 68.5518 166.791 67.906 168.077 67.2631C171.193 65.7066 174.706 64.2461 177.512 62.7023C178.942 61.9143 177.352 62.3003 178.322 61.7492C180.901 60.2811 183.353 59.3263 185.912 57.7998C186.144 57.6607 185.368 57.6004 186.184 57.1617C192.361 53.8265 197.867 51.1723 204.319 47.68C207.434 45.9953 212.881 42.7448 216.118 41.0184C221.732 38.0238 228.896 34.7987 233.567 32.0232C236.625 30.208 235.72 30.195 236.904 29.183C239.179 27.2295 244.212 25.643 244.918 25.442C244.945 25.4339 242.314 27.0248 243.854 26.4328C244.929 26.391 244.889 25.4612 244.918 25.442C245.357 25.3203 250.728 22.44 251.762 21.7621C252.307 21.4028 251.779 21.199 252.065 21.0199C253.946 19.848 255.812 18.7077 257.69 17.5879C260.289 16.0409 262.854 14.5613 265.513 13.0971C266.836 12.3698 268.172 11.6501 269.544 10.9445C270.258 10.5808 270.864 10.2646 271.779 9.85279C271.833 9.82936 271.923 9.79021 271.997 9.75961C272.074 9.72794 272.149 9.69613 272.311 9.63677C272.388 9.60878 272.465 9.58188 272.587 9.54463C272.693 9.51298 272.818 9.47682 273.012 9.43777C273.109 9.41847 273.224 9.39834 273.374 9.38164C273.45 9.37337 273.534 9.36605 273.631 9.36142C273.68 9.35912 273.732 9.35751 273.788 9.357C273.827 9.35692 273.807 9.35617 273.908 9.35766C274.004 9.35962 274.11 9.36498 274.231 9.37699C274.693 9.43873 275.497 9.52329 276.488 10.354C277.517 11.1674 277.996 12.8676 277.848 13.7542C277.828 13.9837 277.785 14.2044 277.748 14.3542C277.728 14.4335 277.707 14.5077 277.686 14.5773C277.643 14.7164 277.597 14.8373 277.553 14.9443C277.463 15.158 277.377 15.318 277.299 15.4494C276.989 15.9549 276.806 16.1139 276.68 16.2505C276.541 16.3911 276.446 16.4721 276.364 16.542C276.094 16.7642 275.992 16.8289 275.871 16.915C275.743 17.0044 275.663 17.057 275.555 17.1285C275.178 17.3759 274.839 17.5848 274.499 17.7922C274.367 17.8665 274.291 17.3217 273.984 17.5004C273.747 17.6368 273.519 17.77 273.296 17.902C269.273 20.2674 266.813 21.9738 263.575 23.9666C260.14 26.0368 257.249 27.2563 254.755 27.4559C252.097 28.8205 248.025 30.2737 245.708 31.0763C243.359 31.8934 243.481 32.9398 243.283 33.0528C238.512 35.8033 235.156 37.0334 230.648 38.8902C229.593 39.3237 228.45 39.8027 227.175 40.3617C224.15 41.6848 218.184 44.5464 214.935 46.1378C212.378 47.3932 210.722 47.8767 208.379 49.104C208.061 49.2705 208.579 49.5404 208.486 49.6016C206.04 51.3111 206.869 49.7031 206.235 49.7688C203.94 50.0038 202.544 50.2037 199.258 52.0628C198.478 52.5 196.887 55.0045 195.47 55.7501C193.638 56.7111 194.121 55.8505 192.221 56.8644C192.058 56.9508 192.243 57.2638 191.023 57.7976C185.391 60.2676 179.191 62.8371 173.38 65.5058C172.586 65.8692 173.844 65.9358 172.7 66.4701C167.336 68.9744 161.415 71.6356 156.051 73.7701C154.731 74.2936 155.372 73.5528 155.042 73.5693C153.017 73.68 151.014 75.7636 150.619 75.9659C141.218 80.8065 133.47 83.267 123.878 88.1761C123.367 88.4398 119.733 91.3864 117.512 91.3134C117.36 91.3105 115.111 91.2225 113.814 92.5889C113.734 92.6739 115.071 92.6352 113.097 93.4871C111.094 94.3528 108.1 96.1247 105.155 96.8546C104.245 97.0763 101.757 97.1052 99.5849 99.0159C99.4348 99.1474 96.3038 102.643 94.3535 102.155C94.0427 102.07 93.6824 100.751 90.9782 102.785C90.4527 103.181 91.6399 102.953 90.1786 103.849C89.3227 104.375 88.3249 104.863 87.2864 105.366C85.5412 106.211 83.7628 107.062 82.1175 108.257C81.6607 108.593 79.9473 110.426 77.9383 110.622C77.627 110.651 77.9328 110.004 77.0217 110.387C72.6432 112.226 68.3179 114.668 63.8799 116.517C62.3044 117.175 62.7479 116.141 61.0787 116.753C59.4101 117.364 56.1052 118.813 54.621 119.942C53.105 121.086 55.4316 121.204 53.0211 122.538C52.7032 122.714 52.3879 122.888 52.0753 123.06C41.8503 128.688 31.345 133.59 21.5112 139.63C21.2926 139.764 21.139 139.868 21.0274 139.953C20.3427 140.477 21.1509 140.323 19.2662 141.526C15.9114 143.709 11.2261 146.722 7.88732 149.764C7.53985 150.084 7.20366 150.408 6.96841 150.654C6.85516 150.771 6.75721 150.887 6.7867 150.851C6.8076 150.818 6.85109 150.788 7.05155 150.443C7.15299 150.238 7.3176 150.033 7.55312 149.164C7.64931 148.689 7.85347 148.029 7.59264 146.641C7.41645 145.241 5.85922 143.244 4.62444 142.733C4.43022 142.632 4.13949 142.497 3.8018 142.384C3.63308 142.327 3.45371 142.276 3.27244 142.234C3.08875 142.192 2.98759 142.174 2.84665 142.151C2.32901 142.067 1.7724 142.079 1.52005 142.103C1.04284 142.139 0.649604 142.242 0.553385 142.268C0.400212 142.309 0.289467 142.345 0.213041 142.372C0.157434 142.391 0.115608 142.407 0.0840729 142.419C-0.0350694 142.467 -0.000310005 142.456 0.0247514 142.444C0.0955323 142.412 0.239405 142.343 0.378668 142.274C0.686631 142.122 0.998927 141.962 1.33279 141.79C1.99035 141.45 2.68491 141.086 3.35085 140.738C4.71193 140.025 6.0193 139.345 7.28925 138.699C9.84364 137.398 12.176 136.27 14.0886 135.46C20.3818 132.783 13.1353 137.398 17.8529 135.115C20.0692 134.043 21.8228 131.545 22.3345 131.214C27.2629 127.997 31.1611 126.509 35.7208 123.773C36.663 123.208 35.4565 123.262 36.2665 122.783C39.031 121.143 42.0535 119.741 44.7221 118.211C45.0912 117.999 45.3108 117.828 45.4686 117.678C45.8055 117.347 45.8345 117.113 46.6016 116.713C49.2891 115.304 51.6549 114.189 54.4676 113.065C54.7165 112.967 53.3814 114.288 55.3375 113.224C58.477 111.515 62.6091 109.649 66.0448 107.299C67.0621 106.601 66.6428 105.776 69.299 105.033C69.8603 104.874 69.7664 106.195 71.9864 103.867C72.365 103.474 76.2656 99.8379 78.9047 99.3241C79.6085 99.1836 81.5401 99.1437 82.7601 98.3042C82.9246 98.1871 81.9814 98.1469 83.0303 97.5101C86.7643 95.2553 90.7535 93.1032 94.5482 90.8246C95.5676 90.2119 93.7715 90.629 95.3003 89.7294C99.5034 87.2557 104.867 84.4338 109.124 82.2552C110.682 81.4596 109.827 82.4065 109.96 82.3843C112.108 82.0318 112.689 80.5791 113.258 80.1988C116.805 77.8413 119.85 76.6842 123.208 74.6852C124.135 74.135 123.239 74.0979 123.406 73.9577C125.156 72.526 124.113 74.0594 125.391 73.4574C128.975 71.7716 132.801 69.6094 136.268 67.6229C137.539 66.8934 135.837 67.2245 136.981 66.5756C143.754 62.7253 150.865 58.8557 157.651 55.4333C158.934 54.7871 158.341 55.5756 158.648 55.5111C160.771 55.0704 162.971 52.8502 163.532 52.4457C166.116 50.5833 167.363 50.2979 169.751 48.902C181.513 42.0258 196.323 34.1121 207.605 28.0268C212.073 25.6169 216.302 23.3567 220.286 21.2287C229.578 16.2552 238.069 11.7409 247.677 6.22775C248.556 5.7219 247.437 5.81292 248.178 5.37918C250.687 3.91268 253.278 2.42543 255.603 0.972515C256.127 0.644309 256.79 0.204588 257.025 0.0196168C257.055 0.00873979 257.115 -0.0942238 256.774 0.299341C256.652 0.455039 256.467 0.678872 256.242 1.16396C256.183 1.29602 256.14 1.39398 256.066 1.6193C255.968 1.92808 255.877 2.32406 255.862 2.81799C255.794 3.79162 256.295 5.21686 257.093 5.98049C258.326 7.1608 259.196 7.16432 259.615 7.25208C259.902 7.28558 260.039 7.2809 260.158 7.27877C260.393 7.2688 260.4 7.25848 260.422 7.25626C260.437 7.25304 260.403 7.2578 260.371 7.26343C260.305 7.27471 260.16 7.30667 260.041 7.33507C258.889 7.61886 257.447 8.0689 256.053 8.49149C250.978 10.0365 245.905 11.6219 240.833 13.3313C239.958 13.6253 241.364 13.6163 239.954 14.105C237.095 15.0989 233.423 16.2861 230.471 17.1391C229.022 17.5596 230.82 16.5757 229.365 17.0068C226.003 18.0025 222.413 19.211 219.037 20.4648C217.596 21.0011 219.93 20.6236 218.039 21.2918C212.717 23.1794 207.454 25.0998 202.173 27.0313C194.759 29.7439 187.325 32.4662 179.726 35.144C178.836 35.4576 177.777 35.0451 175.967 35.9262C175.907 36.1794 176.009 36.4085 176.034 36.6436C157.654 44.0761 139.467 51.4901 121.436 59.8465C120.677 60.1988 122.136 59.8996 120.668 60.5821C119.698 61.0334 118.731 61.4876 117.773 61.9406C110.299 65.4771 103.014 69.0857 95.3057 72.7C94.4378 73.1091 94.62 72.3974 92.1593 73.759C91.7212 73.9996 88.0081 76.0087 87.0845 76.6241C86.9617 76.7078 87.7596 76.5705 86.5591 77.2052C79.5433 80.9116 72.2054 84.7925 65.2002 88.4996C64.0677 89.0987 65.1489 88.2313 64.3368 88.6599C60.7805 90.5387 57.0601 92.6704 53.459 94.6797C51.2736 95.8993 49.1488 97.064 47.0908 98.1361C43.4156 100.051 44.5792 98.9765 42.4797 99.756C42.1842 99.8659 39.9509 101.125 39.7391 101.012C39.1924 100.736 39.9802 99.6331 39.2714 99.4101C39.2187 99.3881 38.7445 99.6536 38.2836 99.9103C38.056 100.037 37.8274 100.164 37.6504 100.256C37.568 100.298 37.4866 100.338 37.4322 100.361C37.3905 100.381 37.4136 100.36 37.3065 100.422C37.2917 100.431 37.2755 100.441 37.2315 100.474C37.2046 100.496 37.1913 100.501 37.1059 100.584C37.0661 100.626 37.0126 100.673 36.9175 100.823C36.8714 100.901 36.808 101.008 36.7597 101.211C36.713 101.406 36.6948 101.761 36.8822 102.106C37.0659 102.452 37.3832 102.639 37.5784 102.706C37.7825 102.777 37.9104 102.78 38.0037 102.782C38.1862 102.781 38.2549 102.76 38.3127 102.748C38.5058 102.696 38.5018 102.685 38.5366 102.673C38.5612 102.662 38.5726 102.657 38.5824 102.652C38.5992 102.645 38.5945 102.647 38.5997 102.645C38.6123 102.64 38.619 102.638 38.6246 102.637C38.6355 102.634 38.6406 102.635 38.6422 102.638C38.6422 102.638 38.6422 102.638 38.6422 102.638C38.6435 102.641 38.6412 102.647 38.627 102.659C38.6232 102.662 38.6185 102.666 38.6108 102.671C38.6049 102.674 38.6122 102.672 38.5618 102.696C38.5142 102.71 38.571 102.718 38.2573 102.793C38.1448 102.789 38.045 102.911 37.4616 102.693C37.1717 102.59 36.7403 102.119 36.7073 101.675C36.6588 101.241 36.7812 101.021 36.8416 100.89C37.1218 100.441 37.115 100.551 37.1483 100.498C37.3217 100.356 37.2915 100.39 37.3203 100.367C37.3394 100.354 37.3341 100.356 37.3407 100.351C37.3809 100.315 37.399 100.293 37.4425 100.254C37.524 100.18 37.6494 100.076 37.8329 99.931C37.9534 99.8384 40.0389 98.5111 40.5291 98.111C40.8619 97.8379 40.0974 98.0433 40.8021 97.5291C41.5074 97.0137 42.4322 96.6766 43.6156 95.8619C44.8183 95.0335 44.1285 95.1554 46.6048 93.66ZM235.187 34.7106C232.91 35.2109 233.326 36.9753 235.408 35.5615C235.507 35.4918 235.303 34.6842 235.187 34.7106ZM161.906 69.5999C159.024 70.4936 157.549 72.0893 159.594 71.4854C161.646 70.8731 162.78 69.3267 161.906 69.5999ZM189.393 55.5418C186.102 56.7351 186.266 58.3194 189.477 56.4091C189.665 56.2981 189.585 55.4717 189.393 55.5418ZM51.2924 94.6305C51.2581 94.6381 49.6505 95.5406 49.6222 95.5684C48.8922 96.2631 52.0997 94.468 51.2924 94.6305ZM216.961 42.1958C215.884 42.4848 213.141 43.9653 214.459 43.6112C215.517 43.3237 218.286 41.8389 216.961 42.1958ZM126.054 81.8004C126.01 81.7898 124.802 82.3127 124.893 82.4465C125.186 82.8766 126.793 81.9844 126.054 81.8004ZM264.894 21.8991C257.743 24.7326 253.072 25.6263 260.895 22.619C262.312 22.0738 257.962 24.0911 259.786 23.4498C263.119 22.2687 265.101 20.903 268.561 19.8443C269.185 19.6496 265.301 21.7364 264.881 21.9053C264.886 21.9032 264.89 21.9011 264.894 21.8991ZM233.111 33.3083C233.051 33.3096 231.378 34.0404 231.355 34.0764C230.687 34.9984 234.055 33.5259 233.111 33.3083ZM55.8512 113.631C55.7536 113.617 51.9365 115.487 51.8205 115.604C50.293 117.489 58.0064 113.711 55.8512 113.631ZM206.177 51.5511C204.65 52.9334 202.569 54.1041 200.873 54.3033C202.639 53.4012 204.401 52.467 206.177 51.5511Z" fill="black"/>
</svg>
