<svg width="650" height="782" viewBox="0 0 650 782" fill="none" xmlns="http://www.w3.org/2000/svg">
<path d="M29.8809 670.971H596.36" stroke="black" stroke-width="0.985182"/>
<path d="M161.896 580.333L161.896 761.606" stroke="black" stroke-width="0.985182"/>
<path d="M454.495 580.333L454.495 761.606" stroke="black" stroke-width="0.985182"/>
<path d="M302.777 580.333L302.777 761.606" stroke="black" stroke-width="0.985182"/>
<g filter="url(#filter0_f_120_1867)">
<path d="M370.8 687.707L377.556 687.659L377.969 746.135C377.981 747.918 377.733 749.257 377.223 750.152C376.713 751.047 375.85 751.733 374.634 752.211C373.417 752.642 371.847 752.911 369.925 753.018C368.002 753.173 365.54 753.26 362.537 753.282C362.391 752.485 362.08 751.572 361.603 750.544C361.174 749.515 360.722 748.626 360.247 747.879C361.561 747.917 362.852 747.931 364.118 747.922C365.385 747.96 366.488 747.952 367.425 747.899C368.411 747.892 369.114 747.887 369.537 747.884C370.193 747.832 370.638 747.688 370.871 747.452C371.104 747.263 371.218 746.84 371.213 746.183L370.8 687.707ZM343.815 693.035L405.317 692.6L405.355 697.948L343.853 698.383L343.815 693.035ZM357.631 706.308L357.662 710.6L391.65 710.36L391.62 706.068L357.631 706.308ZM351.197 701.99L398.344 701.657L398.437 714.746L351.29 715.079L351.197 701.99ZM349.419 719.314L399.592 718.96L399.779 745.348L393.094 745.395L392.94 723.651L349.452 723.958L349.419 719.314ZM342.655 728.088L407.043 727.633L407.079 732.841L342.692 733.295L342.655 728.088ZM348.986 737.684L396.555 737.348L396.59 742.274L349.021 742.61L348.986 737.684Z" fill="black"/>
</g>
<g filter="url(#filter1_f_120_1867)">
<path d="M548.249 689.755L555.239 694.278L515.653 753.132L508.748 748.609L548.249 689.755ZM513.91 692.166C516.616 692.183 519.063 692.818 521.254 694.071C523.445 695.268 525.153 696.997 526.379 699.259C527.662 701.522 528.294 704.118 528.276 707.049C528.259 709.98 527.595 712.568 526.285 714.815C525.031 717.061 523.301 718.798 521.096 720.025C518.891 721.195 516.435 721.772 513.73 721.755C511.025 721.739 508.577 721.132 506.386 719.935C504.252 718.682 502.544 716.924 501.261 714.662C500.035 712.4 499.431 709.804 499.449 706.873C499.466 703.943 500.102 701.354 501.356 699.107C502.666 696.861 504.395 695.152 506.544 693.982C508.75 692.755 511.205 692.15 513.91 692.166ZM513.869 698.93C511.671 698.916 510.088 699.667 509.121 701.183C508.21 702.643 507.748 704.557 507.733 706.924C507.719 709.234 508.159 711.153 509.051 712.681C510 714.208 511.573 714.979 513.771 714.992C517.829 715.017 519.874 712.352 519.907 706.998C519.94 701.644 517.927 698.954 513.869 698.93ZM550.082 721.976C552.787 721.993 555.235 722.628 557.426 723.881C559.616 725.078 561.325 726.807 562.551 729.069C563.777 731.331 564.381 733.928 564.364 736.858C564.346 739.789 563.71 742.378 562.456 744.625C561.203 746.871 559.473 748.608 557.268 749.835C555.062 751.005 552.607 751.582 549.902 751.565C547.197 751.549 544.749 750.942 542.558 749.745C540.367 748.492 538.631 746.734 537.348 744.472C536.122 742.21 535.518 739.614 535.536 736.683C535.554 733.752 536.189 731.163 537.443 728.917C538.753 726.67 540.511 724.962 542.716 723.792C544.921 722.565 547.377 721.96 550.082 721.976ZM550.041 728.74C547.843 728.726 546.26 729.477 545.293 730.993C544.382 732.453 543.919 734.367 543.905 736.734C543.891 739.045 544.33 740.963 545.223 742.491C546.172 744.018 547.745 744.789 549.943 744.802C554.001 744.827 556.046 742.162 556.079 736.808C556.111 731.454 554.099 728.764 550.041 728.74Z" fill="black"/>
</g>
<g filter="url(#filter2_f_120_1867)">
<path d="M82.0255 720.049L82.0466 706.549C82.0498 704.526 82.2387 702.902 82.6134 701.677C82.9882 700.4 83.4958 699.362 84.1361 698.564C84.7763 697.767 85.4431 697.102 86.1362 696.571L86.0568 696.251L72.6368 696.23L74.5641 689.763L97.9692 689.799L97.9591 696.27C95.9887 696.266 94.2569 696.903 92.7638 698.179C91.324 699.454 90.6014 701.796 90.596 705.205L90.5728 720.063L82.0255 720.049ZM91.3143 756.649C89.6102 756.647 88.0396 756.378 86.6026 755.843C85.2189 755.255 84.102 754.321 83.252 753.042C82.402 751.709 81.9787 749.925 81.9822 747.688L82.038 712.061L90.5853 712.074L90.5311 746.663C90.5293 747.834 90.7676 748.687 91.246 749.22C91.7778 749.7 92.5763 749.941 93.6414 749.943C94.1206 749.944 94.6266 749.891 95.1593 749.785C95.692 749.68 96.1715 749.547 96.5978 749.388L97.6269 755.381C96.6143 755.859 95.5754 756.177 94.51 756.335C93.4446 756.546 92.3794 756.651 91.3143 756.649Z" fill="black"/>
</g>
<g filter="url(#filter3_f_120_1867)">
<g filter="url(#filter4_f_120_1867)">
<path d="M123.448 620.448L98.928 625.118L116.109 643.133L100.596 654.476L88.5861 632.791L76.743 654.476L61.2303 643.3L78.0775 624.951L53.7241 620.448L59.5622 602.767L81.914 613.275L78.9115 588.088L98.2607 588.088L95.2583 613.275L117.443 602.6L123.448 620.448Z" fill="black"/>
</g>
</g>
<g filter="url(#filter5_f_120_1867)">
<path d="M554.721 613.042L547.317 613.047L544.554 633.925L550.93 633.921L550.936 642.971L543.326 642.976L541.28 658.609L530.276 658.617L532.323 642.984L519.468 642.992L517.421 658.625L506.52 658.633L508.567 643L502.396 643.004L502.39 633.954L509.692 633.949L512.454 613.071L506.181 613.075L506.175 603.922L513.682 603.917L515.523 589.416L526.527 589.408L524.583 603.91L537.438 603.901L539.382 589.399L550.386 589.392L548.442 603.894L554.715 603.889L554.721 613.042ZM533.55 633.933L536.313 613.055L523.458 613.063L520.695 633.942L533.55 633.933Z" fill="black"/>
</g>
<g filter="url(#filter6_f_120_1867)">
<path d="M248.686 730.972C248.69 734.95 247.453 738.31 244.976 741.05C242.498 743.739 239.012 745.499 234.518 746.33L234.53 758.188L226.935 758.195L226.924 746.725C220.31 746.318 214.857 743.998 210.565 739.766L215.829 733.948C219.604 737.458 223.972 739.21 228.932 739.206C231.773 739.203 234.072 738.529 235.827 737.184C237.582 735.839 238.459 733.952 238.457 731.524C238.455 730.026 238.144 728.786 237.523 727.805C236.954 726.824 235.946 725.947 234.498 725.173C233.051 724.399 230.957 723.6 228.218 722.776C222.689 721.128 218.708 719.091 216.278 716.665C213.847 714.239 212.63 711.115 212.626 707.291C212.623 703.52 213.911 700.393 216.492 697.91C219.125 695.376 222.585 693.823 226.873 693.25L226.862 681.858L234.457 681.851L234.468 693.243C237.051 693.602 239.351 694.298 241.367 695.329C243.435 696.309 245.374 697.65 247.183 699.354L242.151 705.016C240.445 703.467 238.661 702.332 236.801 701.611C234.94 700.889 232.925 700.53 230.755 700.532C228.378 700.534 226.441 701.078 224.944 702.165C223.498 703.199 222.776 704.698 222.778 706.662C222.779 707.953 223.065 709.038 223.634 709.916C224.254 710.742 225.314 711.542 226.813 712.315C228.312 713.037 230.509 713.836 233.403 714.712C238.52 716.308 242.345 718.294 244.879 720.668C247.413 723.042 248.682 726.477 248.686 730.972Z" fill="black"/>
</g>
<g filter="url(#filter7_f_120_1867)">
<path d="M379.052 660.697C371.544 660.761 366.145 659.083 362.854 655.665C359.563 652.247 357.891 647.337 357.836 640.938L357.567 609.276L367.444 609.192L367.715 641.13C367.748 645.007 368.665 647.892 370.466 649.784C372.329 651.676 375.167 652.606 378.983 652.574C382.798 652.541 385.621 651.563 387.451 649.64C389.281 647.716 390.179 644.816 390.146 640.939L389.719 590.817L399.596 590.733L400.021 640.578C400.075 646.978 398.455 651.916 395.162 655.39C391.929 658.864 386.56 660.633 379.052 660.697Z" fill="black"/>
</g>
<g filter="url(#filter8_f_120_1867)">
<path d="M231.65 588.882C238.918 588.882 245.172 590.325 250.409 593.211C255.7 596.097 259.709 599.945 262.434 604.755C265.214 609.565 266.603 614.803 266.603 620.468C266.603 625.118 265.935 629.313 264.599 633.054C263.316 636.742 261.392 639.655 258.827 641.793C256.315 643.931 253.322 644.999 249.848 644.999C246.855 644.999 244.477 644.198 242.713 642.594C241.003 640.938 239.88 638.987 239.346 636.742C238.331 639.094 236.861 641.018 234.937 642.514C233.013 644.011 230.661 644.759 227.882 644.759C223.286 644.759 219.758 643.129 217.3 639.869C214.841 636.609 213.612 632.279 213.612 626.881C213.612 620.201 215.215 614.99 218.422 611.249C221.682 607.454 226.118 605.557 231.73 605.557C236.326 605.557 240.762 606.706 245.038 609.004V629.206C245.038 632.52 245.385 634.845 246.08 636.181C246.828 637.464 247.977 638.105 249.527 638.105C251.932 638.105 253.776 636.742 255.059 634.016C256.342 631.237 256.983 626.775 256.983 620.628C256.983 613.093 254.845 607.214 250.57 602.991C246.294 598.769 239.987 596.658 231.65 596.658C225.878 596.658 220.881 597.914 216.658 600.426C212.49 602.938 209.283 606.439 207.038 610.928C204.847 615.364 203.751 620.441 203.751 626.16C203.751 631.985 204.82 637.09 206.958 641.472C209.149 645.801 212.329 649.141 216.498 651.493C220.72 653.898 225.798 655.101 231.73 655.101C236.861 655.101 242.045 654.165 247.283 652.295L249.848 659.67C244.023 661.861 237.956 662.957 231.65 662.957C224.168 662.957 217.594 661.434 211.929 658.388C206.263 655.395 201.881 651.119 198.781 645.561C195.681 640.002 194.131 633.535 194.131 626.16C194.131 619.105 195.708 612.745 198.861 607.08C202.068 601.415 206.531 596.979 212.249 593.772C217.968 590.512 224.435 588.882 231.65 588.882ZM229.165 637.945C230.982 637.945 232.452 637.41 233.574 636.341C234.696 635.272 235.551 634.016 236.139 632.573V613.333C234.696 612.692 233.173 612.371 231.57 612.371C228.791 612.371 226.679 613.547 225.236 615.898C223.793 618.197 223.072 621.858 223.072 626.881C223.072 630.676 223.553 633.482 224.515 635.299C225.53 637.063 227.08 637.945 229.165 637.945Z" fill="black"/>
</g>
<path d="M22.5 2H602.781" stroke="black" stroke-width="4"/>
<path d="M22 58.7109L599.824 58.1553" stroke="black" stroke-width="2"/>
<path d="M22 179.711L602.781 179.332" stroke="black" stroke-width="2"/>
<path d="M22 119.711L599.824 119.235" stroke="black" stroke-width="2"/>
<path d="M22 242.711L602.781 242.383" stroke="black" stroke-width="2"/>
<path d="M22 298.711L602.781 298.539" stroke="black" stroke-width="2"/>
<path d="M22 361.711L602.781 361.59" stroke="black" stroke-width="2"/>
<rect x="2" y="463.711" width="646" height="300" stroke="black" stroke-width="4"/>
<defs>
<filter id="filter0_f_120_1867" x="339.372" y="684.453" width="70.8501" height="71.9678" filterUnits="userSpaceOnUse" color-interpolation-filters="sRGB">
<feFlood flood-opacity="0" result="BackgroundImageFix"/>
<feBlend mode="normal" in="SourceGraphic" in2="BackgroundImageFix" result="shape"/>
<feGaussianBlur stdDeviation="1.5" result="effect1_foregroundBlur_120_1867"/>
</filter>
<filter id="filter1_f_120_1867" x="496.167" y="686.458" width="71.4824" height="69.9697" filterUnits="userSpaceOnUse" color-interpolation-filters="sRGB">
<feFlood flood-opacity="0" result="BackgroundImageFix"/>
<feBlend mode="normal" in="SourceGraphic" in2="BackgroundImageFix" result="shape"/>
<feGaussianBlur stdDeviation="1.5" result="effect1_foregroundBlur_120_1867"/>
</filter>
<filter id="filter2_f_120_1867" x="69.5425" y="686.76" width="31.4268" height="72.8994" filterUnits="userSpaceOnUse" color-interpolation-filters="sRGB">
<feFlood flood-opacity="0" result="BackgroundImageFix"/>
<feBlend mode="normal" in="SourceGraphic" in2="BackgroundImageFix" result="shape"/>
<feGaussianBlur stdDeviation="1.5" result="effect1_foregroundBlur_120_1867"/>
</filter>
<filter id="filter3_f_120_1867" x="51.7241" y="586.088" width="73.7241" height="70.3877" filterUnits="userSpaceOnUse" color-interpolation-filters="sRGB">
<feFlood flood-opacity="0" result="BackgroundImageFix"/>
<feBlend mode="normal" in="SourceGraphic" in2="BackgroundImageFix" result="shape"/>
<feGaussianBlur stdDeviation="1" result="effect1_foregroundBlur_120_1867"/>
</filter>
<filter id="filter4_f_120_1867" x="50.7241" y="585.088" width="75.7241" height="72.3877" filterUnits="userSpaceOnUse" color-interpolation-filters="sRGB">
<feFlood flood-opacity="0" result="BackgroundImageFix"/>
<feBlend mode="normal" in="SourceGraphic" in2="BackgroundImageFix" result="shape"/>
<feGaussianBlur stdDeviation="1.5" result="effect1_foregroundBlur_120_1867"/>
</filter>
<filter id="filter5_f_120_1867" x="499.36" y="586.389" width="58.3921" height="75.2471" filterUnits="userSpaceOnUse" color-interpolation-filters="sRGB">
<feFlood flood-opacity="0" result="BackgroundImageFix"/>
<feBlend mode="normal" in="SourceGraphic" in2="BackgroundImageFix" result="shape"/>
<feGaussianBlur stdDeviation="1.5" result="effect1_foregroundBlur_120_1867"/>
</filter>
<filter id="filter6_f_120_1867" x="207.51" y="678.837" width="44.2021" height="82.373" filterUnits="userSpaceOnUse" color-interpolation-filters="sRGB">
<feFlood flood-opacity="0" result="BackgroundImageFix"/>
<feBlend mode="normal" in="SourceGraphic" in2="BackgroundImageFix" result="shape"/>
<feGaussianBlur stdDeviation="1.5" result="effect1_foregroundBlur_120_1867"/>
</filter>
<filter id="filter7_f_120_1867" x="354.412" y="587.732" width="48.7783" height="76.1436" filterUnits="userSpaceOnUse" color-interpolation-filters="sRGB">
<feFlood flood-opacity="0" result="BackgroundImageFix"/>
<feBlend mode="normal" in="SourceGraphic" in2="BackgroundImageFix" result="shape"/>
<feGaussianBlur stdDeviation="1.5" result="effect1_foregroundBlur_120_1867"/>
</filter>
<filter id="filter8_f_120_1867" x="191.131" y="585.882" width="78.4717" height="80.0752" filterUnits="userSpaceOnUse" color-interpolation-filters="sRGB">
<feFlood flood-opacity="0" result="BackgroundImageFix"/>
<feBlend mode="normal" in="SourceGraphic" in2="BackgroundImageFix" result="shape"/>
<feGaussianBlur stdDeviation="1.5" result="effect1_foregroundBlur_120_1867"/>
</filter>
</defs>
</svg>
